<?xml version="1.0" encoding="UTF-8"?>
<svg id="Capa_2" data-name="Capa 2" xmlns="http://www.w3.org/2000/svg" viewBox="0 0 448.59 210.43">
  <defs>
    <style>
      .cls-1 {
        fill: #fff;
      }

      .cls-2 {
        fill: #5a9ffb;
      }

      .cls-3 {
        fill: #ecbb2c;
      }

      .cls-4 {
        fill: #203876;
      }

      .cls-5 {
        fill: #cc2f77;
      }

      .cls-6 {
        fill: #a2221e;
      }
    </style>
  </defs>
  <g id="Capa_1-2" data-name="Capa 1">
    <path class="cls-4" d="M53.19,0h39.72c29.37,0,53.19,22.2,53.19,49.58v111.27c0,27.39-23.81,49.58-53.19,49.58h-39.72c-29.37,0-53.19-22.2-53.19-49.58V49.58C0,22.2,23.81,0,53.19,0M53.23,5.13C26.86,5.13,5.49,25.06,5.49,49.64v111.15c0,24.58,21.38,44.51,47.75,44.51h39.62c26.37,0,47.75-19.93,47.75-44.51V49.64c0-24.58-21.38-44.51-47.75-44.51h-39.62Z"/>
    <path class="cls-4" d="M77.11,8.76c.53-.12.87-.44,1.02-.95.05-.16.14-.19.29-.1l.39.24c.11.07.2.05.27-.05l.09-.14c.06-.09.18-.14.3-.13.86.07.77.7.79,1.28,0,.11.08.22.19.27.74.34,1.13.88,1.18,1.63,0,.12.07.16.2.13,1.12-.26,1.86.03,2.23.86.49,1.11.15,2-1.01,2.67-.1.06-.13.13-.08.23.51,1.2-.12,2.73-1.71,2.54-.12-.01-.18.04-.17.15.15,3.85.65,7.54,1.49,11.08.25,1.05.38,1.67.39,1.85.06,1.05.13,2.59.77,3.47,1.41,1.92,2.65,3.84,3.73,5.77.37.65.8.83,1.53.74.49-.07,1.43-.13,2.81-.21.33-.02.65.02.96.13.25.09.48.27.67.55,1.51,2.11,2.87,4.25,4.1,6.43.27.47.65.52,1.16.13,1.62-1.22,2.91-2.68,3.87-4.37.12-.21.12-.42.01-.62-.6-1.14-1.41-2.38-.48-3.63.11-.15.34-.51.67-1.09.31-.52.59-.63,1.08-.88.11-.06.16-.14.15-.25l-.03-.95c0-.12.06-.17.19-.16.32.04.64.03.95-.05.12-.03.21-.09.29-.17,1.15-1.22,2.01-2.31,3.05-2.89,3.08-1.71,6.57.31,8.2,2.89,1.23,1.94,1.41,3.95.57,6.04-.04.1-.04.21,0,.31,1.05,3.04,1.65,4.81,1.82,5.32.26.79-.08,1.55-.34,2.47-.07.25-.02.47.15.68,1.77,2.19,3.25,4.38,4.43,6.57.8,1.48.07,2.86-.35,4.42-.04.16.08.32.26.33.65.04,1.1.36,1.34.95.04.1.11.18.21.24.71.41,1.32.5,1.76,1.53.1.22.14.58.13,1.08-.01.93.01,1.6.07,2.01.02.12-.01.23-.09.32l-.61.75s-.06.1-.06.15c0,1.54-.41,2.81-1.24,3.82-.17.21-.22.49-.13.75.33.95.53,1.5.58,1.68.51,1.6.05,2.85-1.18,4.05-1.7,1.67-3.64,2.72-5.83,3.16-2.58.52-5.07.06-6.38-2.17-.07-.12-.27-.07-.25.07.26,2.37.59,4.82.98,7.35.08.49.21.97.4,1.46.48,1.24,1.39,3.2,2.73,5.87,1.68,3.34,2.75,5.29,3.21,5.85,1.01,1.23,1.8,2.3,2.38,3.19.31.49.48,1.09.5,1.8.06,1.97-1.88,1.71-3.36,2.02-.33.07-.66.18-1.01.34-2.68,1.23-4.76,1.97-7.54,2.18-.62.05-1.05.08-1.3.11-.12,0-.17.07-.17.18l.31,9.16c0,.22-.1.34-.33.36-.03,0-.06,0-.11.01-.15.01-.27-.09-.28-.23l-.32-9.59c0-.1-.06-.17-.16-.21-.34-.13-.74-.28-1.2-.43-.8-.26-1.49-.68-2.07-1.24-.49-.47-.86-.8-1.13-.99-.09-.07-.2-.09-.31-.07-1.31.27-2.49.21-3.53-.18-.3-.11-.43-.02-.38.27.64,4.47,1.1,8.29,1.37,11.46.07.88.44,1.68.62,2.55.02.09-.04.18-.13.21l-.86.24c-.15.04-.23,0-.24-.16-.1-2.93-.34-5.84-.74-8.72-.27-1.99-.53-3.98-.78-5.96,0-.04-.03-.05-.07-.04-1.33.55-2.41.67-3.24.38-.11-.04-.24,0-.31.09-.7,1-1,1.91-.92,2.74.1.99.43,4.1,1,9.33.1.95.08,2.15-.08,3.6-.02.17-.12.28-.29.33l-.17.05c-.12.03-.24-.06-.23-.17.12-1.88.12-3.34,0-4.38-.12-1.03-.41-3.76-.88-8.2-.01-.12-.12-.21-.24-.22l-8.76-.59c-.1,0-.18-.05-.24-.11-.28-.33-.39-.72-.35-1.18.17-1.71.45-3.11.84-4.17.74-2.02,1.46-4.02,2.17-6,.21-.6.35-1.29.4-2.07.08-1.13.12-1.71.13-1.73.35-2.75.71-5.8,1.08-9.14.01-.11-.03-.2-.13-.25-.64-.38-1.36-1.06-1.46-1.89-.11-.95-.1-1.66.02-2.15.44-1.78,1.37-3.79,2.78-6.01.26-.41.5-1.05.74-1.93.15-.56.26-1.23.33-2.02.13-1.41.21-2.37.24-2.89.04-.62-.03-1.21-.22-1.78-.33-.99-.57-1.92-.72-2.8-.05-.3-.04-.61.02-.91.3-1.34.54-2.68.75-4.03.08-.54.07-1.04-.06-1.49-.1-.36-.41-.74-.93-1.13-.09-.07-1.03-.75-2.81-2.06-.7-.51-1.2-1.27-1.51-2.28-.28-.91-.39-2.22-.33-3.92,0-.15-.11-.36-.35-.63-.58-.65-1.28-1.47-2.09-2.43-.51-.61-.93-1.32-1.27-2.13-.79-1.91-2-4.25-3.62-7.03-.12-.2-.23-.64-.33-1.32-.4-2.73-.71-5.31-.92-7.74-.02-.19-.12-.24-.3-.16l-.16.07c-.11.05-.16.17-.12.27.6,1.46-.54,3.33-2.38,2.27-.1-.06-.2-.05-.27.05-.49.58-1.07.76-1.77.54-.12-.04-.22-.1-.3-.18-.3-.28-.59-.29-.87,0-.08.08-.19.12-.31.13-1.07.09-1.66-.37-1.79-1.36-.08-.59.08-1.09.48-1.5.08-.08.08-.2,0-.28-.34-.33-.5-.74-.49-1.23.03-1.25.77-1.88,2.16-1.56.11.03.14,0,.08-.1-.58-.89-.54-1.67.11-2.35.07-.08.09-.17.05-.27-.1-.22-.34-.43-.42-.62-.36-.88-.1-1.62.78-2.23.08-.06.11-.17.05-.26-.48-.67-.48-1.33-.01-2,.77-1.08,1.64-.34,2.61-.47.12-.02.17-.08.15-.19-.12-.54-.05-1.09.21-1.67.11-.26.35-.53.71-.81.26-.2.42-.53.47-.98.01-.12.08-.18.21-.19.35-.02,1.12-.36,2.33-1.01.26-.14.51-.08.75.19.09.09.15.08.18-.05.01-.06.01-.12,0-.19-.06-.3-.41-.46-.71-.33l-2.27,1.02c-.31.14-.65-.15-.51-.45l1.51-3.41c.05-.11.14-.19.26-.24.52-.18.94.05,1.05.59.05.28.1.55.13.82.02.12-.02.21-.11.28l-.45.32c-.13.09-.12.12.05.08M79.1,11.64c.55-.31,1.03-.12,1.52.14.2.1.34.05.41-.15.26-.7.2-1.25-.19-1.66-.78-.81-2.01-.32-2.06.73-.01.3-.02.56-.01.78,0,.16.19.25.33.17M82.7,11.44c-.14.24-.34.44-.6.61-.1.06-.16.15-.19.25-.06.17-.11.29-.17.36-.16.19-.24.17-.25-.07-.01-.4.16-.72.53-.96.05-.03.05-.07.01-.11l-.06-.06s-.05-.02-.07,0c-.64.59-.8,1.19-.47,1.8.46.88,1.69,1.03,2.19.1.47-.85.25-1.54-.65-2.05-.36-.11-.59-.11-.68,0-.05.07-.03.1.06.1h.37ZM77.05,12.4c-.35,0-.62.09-.8.29-.07.08-.09.18-.05.28l.18.44c.06.15.01.21-.16.19-.11-.02-.23-.06-.38-.14-.19-.11-.23-.07-.13.11.33.61,1.17.99,1.73.38.34-.38.43-.83.25-1.36-.31-.93-1.6-.82-1.93.02,0,.02,0,.04.05.07.02.01.04,0,.05,0,.28-.4.68-.58,1.21-.53.03,0,.05.02.06.05l.03.07c.03.07-.03.15-.11.15M78.28,12.53c.07-.02.1-.14.06-.27-.04-.13-.13-.22-.2-.21-.07.02-.1.14-.06.27.04.13.13.22.2.21M79.78,12.07s.01,0,.01,0c0,0,0,0,0,0,0,0-.01,0-.01,0-.39,0-.73.13-1,.41-.03.03-.04.08-.02.12l.05.1c.03.06.06.07.11.02.25-.27.54-.48.85-.64,0,0,.01,0,.02,0M79.91,12.47c-.47.05-.77.28-.88.7h0c-.03.08-.09.13-.19.15-.08.02-.16-.05-.16-.12v-.23c0-.07-.03-.08-.09-.05-.1.06-.11.22-.03.49.13.44.33.73.6.87,1.49.77,2.29-1.47,1.15-2.09-.1-.05-.17-.03-.21.07l-.06.12c-.02.05-.06.08-.12.08M75.66,14.71l.13-.08c.08-.05.1-.16.03-.23-.37-.37-.57-.74-.59-1.13-.02-.37-.48-.56-.79-.32-.88.68-1.06,1.39-.52,2.15.07.09.15.13.27.14.35,0,.63.07.84.19.12.07.21.05.26-.08l.2-.46c.03-.08.09-.14.17-.19M78.26,13.85s-.08-.07-.13-.05c-.07.03-.16.13-.29.31-.08.12-.05.19.09.23.16.04.27.04.35,0,.11-.06.14-.13.09-.24l-.11-.26ZM82.64,15.23c-.01-.5-.46-.89-.99-.88h-.18c-.54.02-.96.43-.94.93l.02.58c.01.5.46.89.99.88h.17c.54-.02.96-.43.94-.93l-.02-.58ZM76.79,17c.59-.03,1.04-.57,1-1.2-.04-.63-.54-1.12-1.13-1.1-.58.03-1.03.56-1,1.2.04.63.54,1.12,1.13,1.1M79.05,17.21c.57.02,1.05-.49,1.08-1.15.03-.66-.41-1.21-.97-1.23-.57-.02-1.05.49-1.08,1.15-.03.66.41,1.21.97,1.23M70.8,16.28c.09-.3.27-.56.53-.78.17-.14.14-.17-.06-.11-.28.09-.45.28-.51.57-.18.88.08,1.84,1.32,1.56.2-.04.37-.23.51-.57.18-.42.15-.89-.09-1.4-.1-.2-.42-.15-.44.07v.1c-.01.08-.06.11-.14.1-.4-.06-.68.12-.84.54-.01.02-.02.04-.04.05-.1.07-.18.07-.22,0-.03-.04-.03-.09-.01-.15M73.06,15.5c-.1.04-.11.08-.03.14.12.08.21.09.3,0,.05-.05.05-.1-.02-.14-.07-.04-.15-.04-.25,0M74.24,16.2c-.39.22-.71.53-.97.95-.37.6-.22.77.46.5.26-.1.71.02,1.37.35.1.06.18.03.23-.07.3-.66.23-1.28-.23-1.86-.23-.3-.54-.42-.93-.36-.38.05-.68.25-.92.6-.02.03-.02.06.01.08l.08.06s.04,0,.05,0c.21-.36.48-.5.83-.4.14.04.15.09.02.17M76.89,20.17c.71,0,1.29-.6,1.29-1.35,0-.75-.56-1.37-1.27-1.38-.71,0-1.29.6-1.29,1.35,0,.75.56,1.37,1.27,1.38M71.73,18.29c-.23-.19-.53-.26-.82-.21-.34.06-.64.3-.8.64-.31.68.05,1.48.73,1.63.26.06.54,0,.77-.14.56-.36.72-1.16.33-1.7-.06-.08-.13-.15-.21-.22M72.69,18.78c.07-.02.08-.19.01-.38-.07-.19-.18-.32-.25-.3-.07.02-.08.19-.01.38.07.19.18.32.25.3M74.26,18.64s-.19.07-.44.08c-.12,0-.21.06-.25.17l-.22.5s-.04.06-.07.08c-.05.04-.09.04-.15.03-.07-.02-.09-.07-.08-.13.02-.13.02-.25-.02-.36-.02-.06-.12-.05-.12.02-.08.88.26,1.4,1.03,1.55.47.09.98-.23,1.11-.61.29-.84.09-1.44-.61-1.79-.22-.11-.45-.12-.69-.04-.35.13-.55.3-.61.51-.05.2,0,.23.15.08.23-.22.49-.37.76-.43.5-.12.58,0,.21.34M72.43,19.99l-.23.28c-.08.1-.05.19.09.27.02,0,.05.02.1.03.11.02.22-.04.26-.13.07-.18.06-.33-.04-.44-.05-.05-.14-.05-.19,0M75.14,22.56l1.11.23c.26.05.52-.1.58-.34l.18-.74c.13-.56-.23-1.1-.79-1.22-.57-.12-1.13.24-1.26.8l-.18.74c-.06.24.11.48.37.54M71.06,23.18c.59,0,1.06-.52,1.07-1.17,0-.65-.47-1.18-1.06-1.18-.59,0-1.06.52-1.07,1.17,0,.65.47,1.18,1.06,1.18M72.65,21.33l-.15,1.4c-.02.22.15.42.39.44l.3.03c.65.06,1.24-.38,1.31-.99.06-.61-.41-1.15-1.07-1.21l-.3-.03c-.24-.02-.45.14-.47.36M87.4,40.83c-1.36-2.36-2.78-4.59-4.26-6.67-.74-1.04-.73-2.1-.85-3.49-.05-.61-.18-1.25-.37-1.91-.71-2.43-.99-5.07-1.28-7.35-.07-.5-.12-.5-.16,0-.29,3.34-1.31,6.61-3.07,9.79-.05.1-.07.2-.06.3.1.83.21,1.71.34,2.65.08.55.32,1.14.73,1.78,1.17,1.82,2.18,3.79,3.04,5.92.35.87.75,1.55,1.18,2.03.03.03.56.65,1.59,1.84.05.06.15.04.17-.04.51-1.83,1.49-3.35,2.94-4.56.09-.08.12-.21.06-.31M74.68,23.02c-.18.08-.17.15.03.21.04.01.09,0,.15,0,.12-.04.14-.09.05-.17-.07-.06-.14-.07-.22-.03M73.96,24.28c.09-.14.15-.28.18-.42.08-.37.03-.38-.15,0-.32.67-.22,1.2.28,1.59,1.53,1.2,2.88-1.69,1.39-2.08-.76-.2-1.11.35-1.53.96,0,0-.02.02-.03.02h-.11c-.06,0-.07-.02-.04-.07M69.53,24.17s-.15,0-.32,0c-.1,0-.19.02-.27.07-.08.06-.17.16-.25.31-.04.08-.11.14-.2.17-.27.1-.35.27-.24.52.31.7,1.24.94,1.73.29.36-.47.38-.95.07-1.43-.49-.77-1.69-.54-1.78.33-.01.14.02.15.1.03.17-.28.31-.44.4-.48.29-.14.55-.14.77,0,.13.08.13.14,0,.19M72.17,26.15c.63,0,1.14-.55,1.14-1.23,0-.68-.5-1.24-1.13-1.24-.63,0-1.14.55-1.14,1.23,0,.68.5,1.24,1.13,1.24M70.93,24.18c.05-.05,0-.17-.11-.26-.11-.1-.24-.13-.29-.09-.05.05,0,.17.11.26.11.1.24.14.29.09M70.64,26.12c.14-.02.23-.16.2-.31-.03-.15-.16-.25-.3-.23-.14.02-.23.16-.2.31.03.15.16.25.3.23M74.12,26.38s-.02.06-.05.07c-.58.25-.75.6-.5,1.04.05.08.02.15-.06.2-.03.02-.07.03-.13.04-.13.02-.2.09-.23.21-.03.13.03.24.19.32,1.81.96,2.59-1.81.72-2.26-.12-.03-.22-.02-.33.03-.49.22-.79.58-.92,1.09-.01.04,0,.08.04.1l.1.06s.01,0,.01,0c.11-.53.46-.92,1.04-1.15.07-.03.11,0,.11.07v.19ZM69.53,26.98s-.15,0-.32,0c-.1,0-.19.01-.27.07-.09.05-.17.16-.26.31-.05.08-.12.14-.21.17-.27.09-.35.26-.25.51.3.71,1.23.97,1.74.32.37-.47.4-.94.09-1.43-.48-.78-1.68-.58-1.79.3-.02.14.01.15.09.03.18-.27.31-.44.4-.48.3-.14.55-.13.78.01.13.09.13.15,0,.19M71.17,26.8h.34c.13,0,.18.15.08.23-.32.22-.44.49-.37.81.03.13-.03.2-.17.21-.18.02-.3.08-.35.19-.06.11-.04.21.06.29.64.58,1.47.37,1.76-.41.36-.96-.75-2.28-1.72-1.15-.06.07-.08.16-.07.27.01.13.04.25.08.33.02.04.04.04.07.01l.07-.07s0,0,0,0c-.05-.2-.05-.38,0-.54.03-.11.11-.17.23-.17M111.36,55.03c.17,0,.24.08.23.23-.06.69-.1,1.4-.12,2.11-.02.44.27.96.86,1.56.09.09.11.19.06.3l-.06.15c-.03.07,0,.12.07.15l.79.27c.08.03.12,0,.12-.07.02-.52.19-.88.51-1.08.21-.13.57-.13,1.07,0,.78.19,1.55.25,2.33.18.47-.04.68.12,1.14.38.1.06.18.04.22-.07.3-.74,1.25-1.18,2.02-.69.93.59,1.4,1.31,1.42,2.16.01.52.09.52.23.02.02-.08.21-.73.56-1.94.19-.64.13-1.15-.14-1.69-.98-1.93-2.43-4.11-4.34-6.53-.07-.09-.17-.14-.28-.15-.23-.02-.59-.06-1.08-.1-1.55-.14-2.41-1.1-3.49-2.21-.07-.07-.19-.1-.29-.07l-.95.27c-.12.03-.23.03-.34-.01-.28-.11-.66-.28-1.14-.52-.42-.21-.57-.54-.45-1,.06-.24-.03-.35-.29-.35-.79,0-1.2,0-1.23,0-1.13-.06-1.38-.85-1.06-1.73.33-.87,1.26-3,2.34-3.08.85-.07,2.01-.2,3.47-.39.12-.02.21-.07.28-.16.47-.62.7-1.09.69-1.41-.02-1.16-1.28-.98-2.11-1.09-.11-.02-.21-.07-.29-.14-1.13-1.17-.36-2.39.3-3.74.51-1.03.61-1.97-.87-2.18-1.41-.19-2.52.09-3.32.87-.43.42-1.24,1.22-2.41,2.43-.24.25-.58.32-.93.41-.14.04-.19.12-.15.25l.11.32c.05.16,0,.29-.15.38l-.95.55c-.1.06-.17.14-.21.24-.21.5-.53.98-.97,1.44-.08.08-.13.18-.14.28-.16.9.35,1.76.8,2.5.3.48.08,1.11-.18,1.52-1.2,1.93-2.62,3.44-4.24,4.53-.64.42-1.11.4-1.41-.07-2.1-3.2-3.6-5.46-4.49-6.77-.24-.34-.66-.53-1.1-.49l-3.13.3c-.1,0-.21.05-.28.12-.69.59-1.41,1.36-2.16,2.32-.83,1.06-1.18,2.2-1.06,3.4.09.97.14,1.47.14,1.5.03.89.1,1.73.22,2.5.15,1.01.75,1.88,1.82,2.6.57.38,1.43,1.02,2.6,1.92,1.11.85,1.17,2.12.95,3.37-.25,1.4-.45,2.44-.59,3.11-.16.75-.16,1.41,0,1.99.2.75.39,1.4.55,1.96.05.18.26.28.45.22,3.32-1.12,6.67-1.94,10.06-2.47.84-.13,1.68-.03,2.51.31,1.22.5,1.88.77,1.96.8.12.05.15.02.1-.08-.37-.61-.31-1.19.17-1.73.08-.08.18-.15.3-.18,1.04-.26,1.97-.69,2.8-1.3.07-.06.17-.08.26-.09l.68-.02c.11,0,.2-.08.22-.18.13-.81.52-1.33,1.19-1.56.17-.06.2-.15.09-.28-.65-.79-.95-1.56-.89-2.29.06-.78.11-1.35.16-1.69.02-.16.12-.24.29-.24h.17ZM119.3,60.06c-.08.51.21.95.87,1.31.89.48,1.55.07,1.45-.83-.09-.83-.52-1.4-1.3-1.73-.57-.24-.96-.08-1.18.48-.05.12-.02.28.1.48.05.09.07.19.06.29M114.16,59.08c-.21.12-.32.28-.33.46,0,.09.12.13.18.06.12-.15.22-.25.31-.3.08-.05.23-.09.42-.13.1-.02.11-.14.02-.18-.18-.07-.38-.04-.59.09M116.12,59.74c.08.06.13.04.14-.05.01-.06,0-.15-.05-.29-.01-.04-.04-.07-.08-.08-.04-.01-.09-.02-.14-.01-.15.02-.19.08-.11.21.06.08.13.15.23.22M117.21,59.6c.14-.06.33-.07.56-.04.13.02.15-.02.06-.1-.2-.2-.45-.24-.75-.11-.31.13-.44.32-.41.59.01.12.06.13.13.03.13-.19.26-.31.41-.37M114.02,60.2c-.12.06-.15.16-.09.29.2.41.5.69.88.83.5.19.83.1.99-.29.2-.48.06-1.02-.41-1.6-.08-.09-.17-.11-.27-.05-.18.1-.35.16-.52.16-.13,0-.22.07-.27.18l-.09.25c-.04.1-.11.17-.21.22M116.93,60.59c-.13.07-.17.17-.1.31.22.44.54.74.95.89.54.2.9.09,1.06-.32.21-.52.05-1.09-.46-1.72-.08-.1-.18-.11-.3-.05-.19.11-.37.18-.55.18-.14,0-.23.07-.28.2l-.1.27c-.04.1-.11.18-.22.24M111.71,60.22c.08.01.12.09.08.15-.19.37-.3.79-.34,1.28-.03.34.21.65.57.73.77.16,1.28,0,1.53-.49.19-.38.17-.77-.08-1.18-.33-.55-.9-.81-1.69-.79-.11,0-.2.06-.27.17-.03.06-.02.09.05.1l.14.02ZM111.04,60.8c.06.03.17-.06.25-.21.08-.15.09-.28.03-.31-.06-.03-.17.07-.25.21-.08.15-.09.28-.03.31M116.33,61.2c-.07.13-.1.23-.09.32,0,.11.07.17.19.18.17,0,.27-.04.28-.15.01-.15-.02-.27-.1-.37-.07-.09-.23-.08-.28.02M114.17,61.85c-.11.1-.25.32-.41.68-.02.06-.03.11,0,.16.03.06.08.11.14.13.13.05.2,0,.21-.12.03-.28.11-.56.24-.84.08-.17.02-.17-.17,0M109.32,63.46l-.06.13c-.06.11-.02.19.1.24.39.15.87.15,1.44.01.3-.08.52-.33.51-.63,0-.59-.31-1.04-.91-1.36-.1-.06-.21-.05-.3.02-.47.35-.7.78-.7,1.27,0,.11-.02.22-.08.32M121.52,61.89c-.17.02-.25.07-.24.16.01.06.07.09.13.07.09-.03.15-.07.19-.14.04-.07.01-.1-.07-.09M108.94,62.39c-.05.17,0,.2.14.07l.4-.37c.15-.14.12-.2-.09-.16-.23.04-.38.19-.44.45M114.85,62.91c-.04-.28-.01-.48.08-.59.07-.08.17-.13.28-.14.14-.01.22-.02.26-.03.21-.04.2-.08-.01-.15-.27-.08-.53-.02-.77.19-.08.07-.1.17-.07.27l.17.44c.04.1.03.2-.02.29-.11.18-.06.38.15.59.08.08.18.12.31.11.42-.03.85-.17,1.27-.42.11-.06.14-.15.11-.26-.08-.28-.26-.57-.54-.89-.1-.12-.16-.11-.16.04v.2c0,.16-.09.18-.26.05-.08-.06-.18-.07-.3-.04-.1.03-.19.12-.21.22-.02.11-.06.17-.12.2-.1.05-.15.03-.17-.07M120.55,62.58c.14,0,.23-.15.17-.27-.14-.27-.47-.39-.99-.37-.34.01-.53.15-.56.42-.03.28.04.3.21.06,0,0,.03-.05.06-.11.02-.04.05-.07.09-.09.17-.08.29-.05.36.11.08.18.3.26.66.25M117.62,62.84l-.22.04c-.11.02-.11.16,0,.18.4.08.67.09.81.01.34-.18.34-.37.02-.57-.55-.32-.94-.31-1.19.04-.13.18-.1.24.1.16.07-.03.16-.08.3-.16.08-.05.16-.05.24,0,.04.03.07.06.08.09.04.12,0,.18-.13.2M108.56,62.87c.03-.07-.09-.17-.26-.22-.17-.05-.33-.04-.36.04-.03.07.09.17.26.22.17.05.33.04.36-.04M107.41,65.08l.91-.63c.21-.14.25-.41.1-.61l-.32-.41c-.38-.48-1.03-.63-1.46-.33l-.09.07c-.43.29-.48.92-.1,1.4l.32.41c.15.19.44.24.65.1M112.65,63.43l-.25.35c-.11.16-.07.24.14.24h1.34c.23,0,.35-.24.22-.41-.64-.8-2.05-1.09-2.3.17,0,.02,0,.04.03.05l.12.04c.06.02.09,0,.1-.06.06-.4.23-.59.51-.56.12.01.15.07.08.17M123.63,64.68c-.41.3-.6.73-.59,1.3,0,.13-.07.18-.2.17-3.16-.42-6.47-.38-8.33,2.43-.97,1.46-1.53,2.92-2.12,4.62-.03.1-.1.19-.18.27-.45.42-.66.9-.64,1.45.01.21.12.73.34,1.58.22.85.59,1.62,1.13,2.31.06.08.18.1.27.05,3.35-1.97,6.88-3.25,10.6-3.84.13-.02.17-.09.13-.2-.26-.79-.7-1.65-.62-2.62,0-.11.05-.21.12-.3.9-1.1,1.08-2.14,1.3-3.47.08-.46.03-.84-.13-1.15-.32-.6-.16-.75.48-.44.08.04.24.14.47.3.1.07.23,0,.23-.11-.02-.64-.02-1.37-.01-2.2.01-.74-.32-1.24-.98-1.51-.29-.12-.66-.12-1.09,0-.87.22-1.78-.25-2.63-.24-1.39,0-2.61.17-3.67.5-1.01.32-1.74.6-2.18.83-.6.32-1.31.62-2.13.88-.65.21-1.39.56-2.23,1.06-.02.01-.04.04-.05.07l-.06.33c-.02.09.01.11.1.06,1.99-1.08,4.18-1.88,6.54-2.41,1.97-.44,3.99-.41,6.07.09.15.04.17.1.04.19M108.97,64.15c-.03.15-.02.28.03.38.05.11.2.14.3.05.06-.06.1-.12.11-.21.02-.09,0-.16-.05-.2-.07-.05-.14-.09-.23-.11-.07-.02-.14.02-.16.09M96.81,71.45c1.95-2.71,5-4.77,8.07-6.22.07-.03.07-.12.01-.15-1.28-.77-2.65-1.03-4.11-.77-3.05.54-6.16,1.34-9.31,2.38-.17.05-.29.2-.3.36-.11,1.44-.21,2.86-.32,4.27-.06.76-.37,1.83-.92,3.23-.05.12-.01.21.1.28.41.23.82.44,1.21.62,1.15.53,3-.84,3.69-1.6.52-.57,1.15-1.37,1.89-2.39M108.06,68.79c-.11.32-.55.41-.8.16-.5-.5-.5-1.53,0-3.09.06-.19-.01-.31-.2-.37l-.24-.08c-.21-.07-.33,0-.37.21-.11.71-.55,1.96-.13,2.62.29.47.9,1.19,1.58.96.62-.21.63-1.07.79-1.91,0-.03,0-.05-.04-.06-.02,0-.04,0-.05.04l-.54,1.52ZM103.98,68.55c.39-.1.96-.03,1.72.21.07.02.14-.04.12-.11-.31-.79-.3-1.66.05-2.61.08-.22-.17-.43-.4-.32-2.29,1.06-4.31,2.35-6.08,3.88-1.35,1.16-2.62,3.12-3.64,4.38-.69.85-1.64,1.53-2.82,2.02-1.27.53-2.16.09-3.21-.57-.09-.06-.21-.03-.26.06-1.14,1.79-2.33,3.66-2.15,5.52.01.11.07.2.18.26l3.28,1.77c.45.24,1.02.07,1.23-.37.09-.19.15-.43.18-.74.21-1.98.5-3.62,3.18-3.54,1.47.04,2.23.06,2.29.07.64.04,1.04-.25,1.19-.87.17-.67.26-1.35.28-2.05.01-.42.05-.73.12-.91.35-.97,1.61-1.44,2.67-1.73.12-.03.18-.1.19-.22.14-1.58.14-3.67,1.9-4.11M94.48,86.08c-.79.5-1.2.66-1.58,1.48-1.21,2.64-1.95,4.35-2.2,5.16-.08.24-.22.42-.43.51-.82.4-1.44.8-1.78,1.59-.21.48-.5.83-.86,1.04-.1.06-.17.15-.2.27-.18.76-.46,1.67-.83,2.74-1.24,3.56-1.89,5.44-1.96,5.66-.38,1.26-.64,2.48-.76,3.65-.03.28.2.54.5.56l4.45.3c.13,0,.25-.09.25-.21.06-1.35-.02-2.32.37-3.21.57-1.28,1.43-1.72,2.59-2.38.1-.06.16-.14.19-.25.03-.14.11-.61.22-1.38.2-1.42,1.03-2.37,2.48-2.85,1.15-.37,2.35-.41,3.61-.12.11.03.22,0,.32-.04.12-.07.28-.17.46-.31.97-.76,2.65-.48,3.72.07.31.16.98.57,2.01,1.25.1.06.19.07.29,0,.58-.32,1.17-.44,1.76-.37,1.63.21,3.56.65,3.7,2.55.01.19.12.25.31.18,1.2-.45,2.3-.21,3.31.71.2.18.33.62.5.86.04.06.15.1.28.12l5.44.75c.13.02.24-.09.19-.2-.18-.38-.34-.67-.49-.86-1.92-2.44-3.43-4.78-4.53-7-1.37-2.78-2.33-4.73-3.57-7.54-.21-.49-.42-1.37-.61-2.66-.51-3.38-.89-6.75-1.15-10.13-.02-.25-.09-.5-.21-.73-.5-.96-1.15-2.17-1.97-3.61-.48-.85-.92-1.35-1.32-1.48-1.95-.65-3.13-.08-3.55,1.68-.2.86-.34,1.47-1.08,2.1-1.09.92-1.85,2.04-2.28,3.34-.29.86-.39,1.41-1.07,1.96-.95.77-1.71,1.42-2.29,1.97-1.17,1.11-1.48,2.73-1.85,4.29-.05.21-.19.39-.38.51"/>
    <path class="cls-4" d="M79.48,10.35c-.13.14-.26.3-.36.48-.08.13-.15.13-.22,0-.02-.06-.03-.12-.01-.21.02-.13.13-.29.32-.49.19-.2.35-.31.49-.35.09-.02.17-.03.23,0,.15.05.16.12.03.2-.18.12-.34.25-.47.39"/>
    <path class="cls-4" d="M74.37,13.75c-.13.16-.24.34-.34.56-.02.06-.07.07-.13.06-.04-.01-.07-.03-.09-.05-.04-.04-.05-.09-.03-.13.14-.29.26-.49.35-.6.09-.11.27-.26.53-.46.04-.03.1-.04.15,0,.02,0,.05.04.07.07.04.05.03.09-.02.13-.2.14-.36.29-.49.45"/>
    <path class="cls-4" d="M81.06,15.36c.07.31.07.54.01.68-.03.07-.09.11-.17.12-.03,0-.07,0-.09,0-.03-.01-.05-.04-.05-.07v-1c0-.07.03-.13.08-.18l.5-.46c.12-.11.2-.09.23.07.03.16-.1.35-.4.58-.1.07-.13.16-.11.27"/>
    <path class="cls-4" d="M76.79,15.3c-.39,0-.57.23-.68.52-.02.05-.07.07-.12.06l-.09-.02s-.06-.03-.05-.07c.13-.64.57-.89,1.33-.77.09.02.12.13.05.18-.09.07-.24.1-.43.1"/>
    <path class="cls-4" d="M78.66,15.99c.02.19,0,.33-.06.43-.05.08-.17.07-.2-.02-.23-.72,0-1.18.7-1.38.04-.01.07,0,.08.04l.03.08s0,.1-.05.12c-.32.14-.54.34-.5.72"/>
    <path class="cls-4" d="M76.63,18.03c-.38.13-.46.4-.46.72,0,.05-.04.09-.09.09h-.1s-.07,0-.07-.05c-.11-.65.22-1.04.99-1.16.09-.01.16.08.11.15-.07.09-.19.17-.38.24"/>
    <path class="cls-4" d="M71.73,18.29c-.22.21-.51.35-.88.41-.12.02-.2.08-.23.19-.05.17-.12.29-.21.34-.11.07-.17.05-.18-.08-.05-.37.16-.63.62-.78.37-.13.66-.15.87-.08"/>
    <path class="cls-4" d="M75.49,21.69c.05.2.04.36-.01.47-.05.09-.18.09-.22,0-.33-.75-.14-1.26.59-1.54.04-.02.08,0,.1.04l.05.08s.01.11-.04.13c-.32.19-.54.42-.46.82"/>
    <path class="cls-4" d="M70.84,21.51c-.13.1-.24.27-.34.5-.02.06-.09.08-.15.06l-.1-.03c-.07-.02-.09-.07-.07-.13.06-.22.16-.39.29-.52.39-.4.74-.45,1.05-.14.21.2.17.28-.13.23l-.25-.04c-.11-.02-.21,0-.3.08"/>
    <path class="cls-4" d="M73.19,21.61c-.09.05-.14.13-.15.23-.02.14.01.32.09.54.02.05,0,.11-.06.12l-.1.04c-.06.02-.1,0-.13-.05-.1-.19-.15-.36-.15-.53,0-.5.21-.73.63-.7.28.02.3.1.06.24l-.2.11Z"/>
    <path class="cls-4" d="M71.68,24.56c-.07.18-.15.3-.25.36-.08.05-.18,0-.17-.1.12-.73.53-1.04,1.24-.94.05,0,.06.03.06.07v.08s-.06.09-.11.09c-.34,0-.64.08-.77.44"/>
    <path class="cls-4" d="M369.48,32.75l2.81,4.54c.06.09.01.21-.1.26l-13.95,5.41c-.09.04-.19,0-.24-.08l-1.84-2.96c-.05-.09-.02-.2.07-.25l12.97-6.99c.1-.05.21-.02.26.07"/>
    <path class="cls-4" d="M265.04,73v3.02c0,.11-.09.2-.21.2h-7.72c-.06,0-.12-.05-.12-.11v-39.98c0-.07.06-.13.13-.13h7.88c.13,0,.2.06.2.19v14.08c0,.17.06.19.17.06,1.97-2.23,4.06-3.74,7.16-4.16,4.46-.6,8.13.59,11,3.54,3.21,3.29,4.12,8.43,3.87,13.06-.28,5.09-2.52,10.62-7.7,12.99-2.9,1.33-5.95,1.62-9.15.87-2.04-.48-3.82-1.71-5.33-3.69-.13-.17-.19-.15-.19.06M271.82,70.7c2.86.03,5.22-1.84,6.24-4.26.6-1.43.91-2.88.93-4.35.06-4.46-1.06-9.38-6.96-9.44-5.89-.06-7.13,4.84-7.18,9.29-.02,1.47.26,2.93.83,4.37.96,2.44,3.28,4.36,6.13,4.39"/>
    <path class="cls-4" d="M323,36.01h7.99c.09,0,.16.07.16.15v39.92c0,.08-.07.15-.16.15h-7.99c-.09,0-.16-.07-.16-.15v-39.92c0-.08.07-.15.16-.15"/>
    <path class="cls-4" d="M334.99,35.99h8.06c.07,0,.13.06.13.12v39.97c0,.07-.06.12-.13.12h-8.06c-.07,0-.13-.06-.13-.12v-39.97c0-.07.06-.12.13-.12"/>
    <path class="cls-4" d="M201.68,61.81c-.08,0-.14.06-.14.13v14.09c0,.11-.09.19-.2.19h-8.49c-.14,0-.21-.07-.21-.19v-39.28c0-.08.07-.14.15-.14,7.34,0,12.5,0,15.5-.03,3.26-.02,5.58.14,6.98.48,6.7,1.62,10.39,7.51,9.66,13.92-.74,6.47-5.85,10.55-12.68,10.79-1.65.06-5.17.07-10.56.04M201.5,43.67l.04,11.26c0,.07.06.13.14.13l9.23-.03c3.46,0,6.26-2.35,6.25-5.24v-1.09c-.02-2.88-2.83-5.21-6.29-5.2l-9.23.03c-.08,0-.14.06-.14.13"/>
    <path class="cls-4" d="M245.08,73.85c-.01-.06-.08-.08-.12-.04-1.97,1.71-4.31,2.73-7.02,3.06-2.95.36-6.26.18-8.94-1.15-3.97-1.97-4.55-6.24-3.62-10,1.05-4.23,4.78-5.76,8.95-6.54,1.38-.26,3.67-.61,6.85-1.03,0,0,.51-.14,1.51-.41.7-.19,1.24-.54,1.63-1.04.35-.45.51-1.01.47-1.67-.14-2.68-3.68-3.17-5.99-3-2.8.2-4.55,1.42-4.98,4.09-.02.14-.15.24-.3.24h-7.36c-.07,0-.12-.04-.12-.1.04-4.08,1.77-6.96,5.18-8.65,1.08-.53,2.38-.93,3.92-1.2,1.37-.24,2.75-.37,4.14-.38,4.65-.05,9.96.58,12.49,4.81.99,1.66,1.5,3.62,1.52,5.88.05,6.16.06,12.61.03,19.33,0,.1-.08.17-.19.17h-7.32c-.18,0-.34-.11-.37-.28l-.39-2.09ZM244.92,62.01c-1.26.59-2.33.96-3.21,1.12-2.27.41-3.92.78-4.95,1.11-1.73.55-3.07,1.39-3.35,3.13-.56,3.47,2.32,4.47,5.42,3.92,3.57-.64,6.03-3.08,6.1-6.48.02-.89.04-1.81.06-2.75,0-.04-.02-.06-.06-.04"/>
    <path class="cls-4" d="M298.49,63.56c-.16,0-.23.08-.22.22.32,4.55,3.49,7.85,8.73,6.9,1.9-.34,3.22-1.32,3.99-2.94.06-.12.15-.18.29-.18h8.15c.08,0,.14.08.12.15-1.37,4.28-4.67,7.53-9.25,8.74-3.68.97-8.26.72-11.8-.52-4.39-1.53-6.99-5.01-7.99-9.33-2.01-8.7.47-18.82,11.55-20.41,7.55-1.09,14.25,1.44,16.68,8.59.92,2.73,1.35,5.58,1.29,8.56,0,.14-.08.21-.23.21h-21.29ZM298.62,58.59l12.78.04s.07-.03.07-.07v-.16c.01-3.43-2.86-6.23-6.42-6.24h-.03c-3.55-.01-6.45,2.76-6.46,6.2v.16s.03.07.07.07"/>
    <path class="cls-4" d="M346.03,61.31c.13-9.12,6.24-15.43,16.31-15.3,10.06.12,16,6.58,15.87,15.7-.13,9.12-6.24,15.43-16.31,15.31-10.06-.12-16-6.58-15.87-15.7M354.61,61.55c0,4.77,1.61,8.95,7.58,8.95s7.58-4.19,7.57-8.96c0-4.77-1.61-8.95-7.58-8.95-5.97,0-7.58,4.19-7.57,8.95"/>
    <path class="cls-4" d="M389.14,50.69c0,.12.18.17.24.06,2.28-3.9,7-5.15,11.54-4.64,3.6.41,6.16,1.99,7.67,4.75.76,1.39,1.14,3.13,1.14,5.24,0,.05,0,6.71-.01,19.99,0,.1-.05.14-.15.14h-8.07c-.11,0-.2-.08-.2-.19,0-2.95,0-8.94,0-17.97,0-2.01-.37-4.51-2.78-5.15-2.05-.54-5.1-.45-6.83.88-1.6,1.23-2.16,3.29-2.16,5.15-.01,5.88-.02,11.58-.01,17.09,0,.1-.09.19-.2.19h-7.99c-.08,0-.14-.06-.14-.13v-29.15c0-.09.05-.13.14-.13h7.61c.13,0,.2.06.2.19v3.69Z"/>
    <path class="cls-4" d="M21.37,51.26c1.73,0,3.24-.15,4.36.3,1.01.41,1.71,1.16,2.1,2.25.04.11.12.16.25.16,1.56-.11,3.01.47,3.74,1.75,1.39,2.44-.53,4.98-3.41,4.95-1.71-.02-4.06-.02-7.06,0-1.73,0-3.24.15-4.36-.3-1.01-.41-1.71-1.16-2.1-2.25-.04-.12-.12-.17-.25-.16-1.56.11-3.01-.47-3.74-1.75-1.39-2.44.53-4.98,3.41-4.95,1.71.02,4.06.02,7.06,0M21.35,53.83c-4.33,0-6.76,0-7.3.02-.37,0-.66.29-.65.64,0,.4.25.6.73.62,1.4.05,2.22.07,2.46.08.7.01,1.29.69,1.23,1.37-.02.33-.03.62-.01.85.01.23.21.41.46.42.45.02,1.48.03,3.1.03,4.32,0,6.76,0,7.3-.02.37,0,.66-.3.65-.64,0-.4-.25-.6-.73-.62-1.4-.05-2.22-.07-2.46-.08-.7-.02-1.28-.69-1.23-1.38.03-.33.03-.62.02-.85-.02-.23-.21-.41-.46-.42-.45-.02-1.49-.03-3.1-.03"/>
    <path class="cls-4" d="M57.48,87.52c-.06.06-.01.16.08.15,1.26-.05,2.5-.06,3.73-.02.65.02,1.11.11,1.38.27.41.24.63.68.68,1.33l-.02,9.7c0,.84.12,1.63-.8,2.08-1.03.5-2.23,1.04-3.61,1.64-.11.05-.15.17-.08.26l16.96,25.2s0,.1-.04.13l-2.44,1.1s-.04,0-.05-.01l-7.17-10.66c-.04-.06-.11-.1-.19-.1H21.44c-.1,0-.17.04-.22.12l-4.56,6.53c-.06.09.01.21.13.2,17.34-1.7,34,.64,49.99,7.04.12.05.13.2.02.26l-3.15,1.84c-.1.06-.2.06-.31,0-4.26-2.16-8.86-3.72-13.79-4.67-5.92-1.14-11.79-1.59-17.59-1.36-2.51.1-7.03.29-13.56.58-2.32.1-4.49,0-6.51-.3-.72-.11-1.25.25-1.16.92.39,2.98.51,5.79.37,8.41-.26,4.62-.43,8.47-.51,11.54-.17,6.32.7,12.59,2.58,18.79,2.01,6.62,5.53,12.3,10.55,17.06.1.1.13.22.08.35l-1.29,3.39c-.03.08-.15.1-.21.04-1.35-1.43-2.52-2.85-3.5-4.24-2.77-3.95-5.31-8.27-7.62-12.93-.81-1.64-1.37-3.03-1.68-4.18-1.04-3.92-1.56-7.8-1.57-11.65-.02-6.4-.01-16.24,0-29.52,0-.08.06-.14.14-.16l4.52-.72c.15-.02.28-.1.37-.22l15.78-22.66c.05-.08.02-.18-.07-.22-1.26-.56-2.52-1.13-3.79-1.73-.64-.3-.65-.95-.65-1.59-.01-5.9-.01-9.3,0-10.21.02-1.04.64-1.56,1.84-1.55.14,0,1.45.03,3.93.07.11,0,.17-.12.1-.2-1.58-1.51-2.82-3.32-3.71-5.43-4.01-9.56,1.16-19.94,11.56-23.26.34-.11.8-.24,1.37-.39.12-.03.18-.1.18-.22.01-.56.02-1.47.02-2.73,0-4.28,5.52-5.93,8.14-2.36.07.09.16.12.27.08,3.75-1.3,6.83-.52,9.25,2.33.07.09.16.1.25.03,1.18-.79,2.19-1.27,3.05-1.44,3.77-.73,6.81.24,9.13,2.92.31.36.61.95.89,1.38.06.08.17.12.27.09,1.01-.34,1.72-.53,2.14-.57,4.23-.35,7.3,1.17,9.2,4.56.85,1.52,1.07,3.24.66,5.15-.45,2.11-1.81,3.88-4.06,5.3-.1.06-.15.15-.17.26-.06.65,0,1.25-.08,1.9-.36,2.9-1.76,5.13-4.22,6.68-3.53,2.23-7.17,2.39-10.93.47-.54-.28-1.09-.67-1.61-1.04-.13-.09-.22-.07-.27.07-.88,2.27-2.22,4.31-4,6.12M42.79,57.91l2.49-.04c.12,0,.21-.09.21-.2l-.04-2.36c-.01-.81-.65-1.45-1.41-1.43h-.13c-.77.01-1.38.67-1.37,1.48l.04,2.36c0,.11.1.2.22.2M75.5,72.38c-.21-1.28,1.35-1.39,2.14-1.97,2-1.45,2.77-3.27,2.32-5.44-.72-3.44-4.86-5.38-8.15-3.74-.54.27-.88.44-1,.51-.98.54-2.04.37-2.34-.71-.81-2.98-3.29-4.78-6.51-4.42-1.68.19-2.84,1.01-4.01,2.21-.82.85-1.96.78-2.48-.31-.25-.53-.5-1.27-.91-1.72-1.65-1.82-3.67-2.1-6.05-.85-.23.12-.37.34-.37.59v1.71c0,.1.08.19.18.22,9.27,2.35,15.04,10.02,14.14,18.96-.07.65.17.91.61,1.31,2.95,2.66,7.18,2.89,10.25.32,1.93-1.62,2.65-3.84,2.18-6.66M34.82,87.56l17.83-.03c.25,0,.47-.07.67-.21,4.73-3.4,7.16-8.59,6.31-14.09-1.39-8.95-11.4-14.89-20.74-11.86-3.53,1.14-6.29,3.13-8.27,5.95-4.59,6.52-3.04,15.33,3.71,20.08.14.1.31.15.49.15M43.84,94.27c1.24,0,1.49,1.01,1.5,2.01.02,3.08.01,6.13-.01,9.15,0,.18.08.23.26.15l14.73-6.61c.1-.05.17-.14.17-.25v-8.34c0-.1-.06-.15-.17-.15-5.49,0-10.99,0-16.48,0-5.5,0-10.99,0-16.48,0-.11,0-.17.05-.17.15v8.34c0,.11.07.21.17.26l14.73,6.6c.18.08.26.03.26-.15-.02-3.02-.03-6.07-.01-9.15,0-1,.26-2.01,1.5-2.01M40.06,107.84c.11,0,.15-.14.05-.19l-8.44-3.71s-.11,0-.13.04l-2.58,3.71c-.05.07,0,.15.09.15h11.02ZM47.7,107.64c-.11.05-.07.21.05.21h10.82c.09,0,.15-.1.1-.17l-2.51-3.72s-.1-.06-.15-.04l-8.31,3.73ZM43.76,115.78c10.89,0,17.54,0,19.95,0,.12,0,.19-.12.13-.22l-3.25-4.82c-.06-.1-.18-.15-.3-.16-1.34,0-6.85,0-16.53,0-9.68,0-15.19,0-16.53.02-.12,0-.23.06-.3.16l-3.25,4.83c-.06.09.01.22.13.22,2.41,0,9.06,0,19.95,0"/>
    <path class="cls-6" d="M272.03,52.65c5.9.06,7.02,4.98,6.96,9.44-.02,1.47-.33,2.92-.93,4.35-1.02,2.42-3.38,4.29-6.24,4.26-2.86-.03-5.17-1.94-6.14-4.39-.57-1.44-.85-2.9-.83-4.37.05-4.46,1.28-9.35,7.18-9.29"/>
    <path class="cls-3" d="M354.61,61.55c0-4.77,1.6-8.95,7.57-8.95,5.97,0,7.58,4.18,7.58,8.95,0,4.77-1.6,8.96-7.57,8.96s-7.58-4.19-7.58-8.95"/>
    <path class="cls-4" d="M119.77,59.48c-.09.16-.16.33-.21.51-.03.13-.1.15-.2.04-.04-.04-.06-.1-.07-.19-.01-.12.05-.29.17-.51.12-.22.24-.36.35-.42.08-.04.14-.06.2-.06.15.01.18.07.08.18-.13.14-.25.3-.33.45"/>
    <path class="cls-4" d="M106.77,64.08c.01.2-.02.34-.08.44-.05.08-.18.06-.2-.03-.2-.74.06-1.19.78-1.36.05,0,.07,0,.08.05l.03.08s-.01.1-.06.12c-.33.13-.57.32-.55.71"/>
    <path class="cls-4" d="M55.43,75.45c0,5.97-5.19,10.81-11.59,10.81s-11.59-4.84-11.59-10.81,5.19-10.81,11.59-10.81,11.59,4.84,11.59,10.81M52.5,75.45c0-4.46-3.88-8.07-8.66-8.07s-8.66,3.61-8.66,8.07,3.88,8.07,8.66,8.07,8.66-3.61,8.66-8.07"/>
    <path class="cls-4" d="M286.68,87.98c0-.24-.06-.25-.18-.04-1.08,1.91-2.83,2.62-5.25,2.14-3.26-.65-4.11-4-3.75-6.83.38-3.02,2.72-5,6-4.3,1.34.28,2.3.99,2.88,2.13.19.36.28.34.28-.06v-5.86c0-.09.08-.17.18-.17h1.27c.15,0,.22.07.22.21v14.59c0,.15-.08.23-.25.23h-1.12c-.18,0-.27-.08-.27-.25v-1.8ZM282.96,88.96c2.13-.04,3.83-2.05,3.78-4.5-.05-2.45-1.81-4.4-3.95-4.37-2.13.04-3.82,2.05-3.78,4.5.05,2.45,1.81,4.4,3.95,4.37"/>
    <path class="cls-4" d="M291.86,84.84c-.42,0-.6.19-.53.58.45,2.45,1.76,3.62,3.93,3.5,1.51-.08,2.53-.66,3.04-1.97.07-.18.21-.28.42-.28h1.15c.22,0,.3.09.23.29-1.04,3.06-4.62,4.01-7.58,2.78-2.5-1.04-3.04-3.78-2.84-6.11.25-2.97,2.17-4.83,5.45-4.83,2.17,0,3.87.96,4.67,2.89.38.91.55,1.9.54,2.97,0,.1-.09.18-.19.18h-8.28ZM291.56,83.79h6.87c.07-.01.13-.07.13-.14v-.2c0-1.86-1.59-3.36-3.55-3.36h-.05c-1.96,0-3.54,1.51-3.54,3.37v.2c0,.07.06.12.13.12"/>
    <path class="cls-4" d="M205.04,114.12l-3.06,8c-.02.06-.09.1-.16.1h-8.99c-.12,0-.2-.11-.16-.21l15.03-39.3c.02-.06.09-.1.16-.1h10.07c.07,0,.14.04.16.1l14.84,39.3c.04.1-.04.21-.16.21h-9.31c-.08,0-.14-.05-.16-.11l-2.61-7.98c-.02-.07-.08-.11-.16-.11h-15.33c-.07,0-.14.04-.16.1M207.38,107.05c-.03.07.03.15.12.15l10.43.04c.08,0,.14-.08.12-.15l-5.16-15.28c-.04-.11-.2-.11-.24,0l-5.27,15.25Z"/>
    <path class="cls-4" d="M263.86,92.61c0,.13.07.19.21.19h17.03c.1,0,.15.05.15.14v5.2c0,.11-.06.16-.18.16h-17.07c-.08,0-.14.06-.14.13,0,4,0,8.05,0,12.16,0,3.03,1.14,5.8,5.04,5.66,3.21-.11,4.53-2.37,4.59-5.1.03-1.47.04-4.17.01-8.11,0-.13.07-.2.21-.2h7.37c.08,0,.15.06.15.14.02,3.19.03,6.01.03,8.43,0,2.44-.65,4.67-1.96,6.69-1.91,2.97-5.3,4.5-9.1,4.84-6.96.62-13.06-2.15-14.31-9.03-.15-.85-.23-2.14-.23-3.84-.01-8.31-.01-16.62,0-24.94,0-.07.06-.13.14-.13h7.94c.07,0,.13.06.13.12v7.48Z"/>
    <path class="cls-4" d="M243.12,95.91c0,.13.18.18.26.07,2.33-3.4,5.75-4.14,9.98-3.94.12,0,.19.07.19.18v7.61c0,.07-.07.12-.14.11-1.74-.28-3.42-.22-5.05.17-3.69.89-4.76,3.79-4.72,7.01.01.87.01,5.84,0,14.91,0,.11-.09.19-.2.19h-7.98c-.08,0-.14-.06-.14-.13v-29.07c0-.13.07-.2.22-.2h7.39c.11,0,.2.08.2.18v2.9Z"/>
    <path class="cls-4" d="M292.39,109.54c-.16,0-.24.07-.23.22.29,4.54,3.44,7.84,8.66,6.92,1.89-.33,3.22-1.3,3.99-2.92.06-.12.15-.18.29-.17l8.13.04c.08,0,.14.07.12.15-1.39,4.26-4.69,7.48-9.26,8.67-3.67.96-8.24.68-11.76-.57-4.36-1.55-6.95-5.02-7.92-9.33-1.96-8.68.56-18.75,11.61-20.29,7.54-1.05,14.2,1.5,16.58,8.64.91,2.72,1.32,5.57,1.25,8.54,0,.14-.08.21-.23.21l-21.22-.1ZM292.98,104.8h11.85c.21,0,.39-.16.39-.36v-.26c0-3.32-2.83-6.01-6.31-6.01s-6.31,2.69-6.31,6.01v.26c0,.2.18.36.39.36"/>
    <path class="cls-4" d="M336.04,119.84c-.01-.05-.08-.07-.12-.04-1.98,1.71-4.31,2.73-7.02,3.06-2.95.36-6.26.17-8.93-1.16-3.97-1.97-4.54-6.24-3.61-10.01,1.05-4.22,4.78-5.76,8.96-6.53,1.39-.26,3.67-.6,6.86-1.02,0,0,.51-.14,1.51-.41.7-.19,1.24-.54,1.63-1.04.35-.45.51-1.01.47-1.67-.14-2.68-3.67-3.17-5.98-3.01-2.8.2-4.56,1.41-4.98,4.09-.02.14-.15.24-.3.24h-7.36c-.07,0-.12-.05-.12-.11.05-4.08,1.78-6.96,5.19-8.65,1.08-.53,2.38-.93,3.92-1.2,1.37-.24,2.75-.36,4.14-.37,4.65-.04,9.96.59,12.49,4.83.99,1.66,1.49,3.62,1.51,5.88.04,6.16.04,12.61.01,19.34,0,.09-.08.17-.19.17h-7.32c-.18,0-.34-.12-.37-.29l-.39-2.1ZM335.93,108.01c-1.26.59-2.34.97-3.23,1.13-2.28.41-3.94.78-4.97,1.1-1.74.56-3.08,1.4-3.36,3.14-.57,3.49,2.33,4.49,5.44,3.94,3.59-.65,6.06-3.09,6.13-6.51.02-.9.04-1.82.06-2.76,0-.05-.02-.06-.06-.04"/>
    <path class="cls-4" d="M369.59,118.68c-.74,1.16-1.64,1.99-2.69,2.5-1.7.82-3.5,1.23-5.41,1.25-4.31.03-8.08-1.13-10.76-4.24-1.24-1.45-2.15-3.2-2.7-5.26-1.7-6.25-.64-14.18,5.21-18.4,2.87-2.07,6.12-2.86,9.75-2.38,2.76.37,4.94,1.7,6.5,3.86.2.27.3.25.3-.08v-2.91c0-.14.07-.21.22-.21h7.91c.1,0,.17.07.17.16,0,11.48,0,20.52,0,27.12,0,3.08-.18,5.22-.53,6.43-1.29,4.47-4.94,7.59-9.73,8.83-8.98,2.3-20.41-1.26-20.51-11.45,0-.07.06-.12.13-.12h7.42c.11,0,.19.08.2.18.1,4.39,4.54,5.9,8.53,5.26,3.21-.52,5.85-2.44,6.17-5.55.07-.73.06-2.38-.03-4.96,0-.15-.05-.17-.14-.03M363.08,116.36c.94-.01,1.79-.18,2.56-.52,4.19-1.81,4.8-6.52,4.24-10.4-.55-3.85-2.46-6.73-7.04-6.68-4.58.05-6.41,2.98-6.86,6.84-.45,3.9.28,8.58,4.52,10.3.78.31,1.63.46,2.57.45"/>
    <path class="cls-4" d="M401.03,119.84c-.01-.05-.08-.08-.12-.04-1.98,1.71-4.32,2.73-7.02,3.06-2.95.36-6.26.17-8.93-1.16-3.97-1.97-4.54-6.24-3.6-10.01,1.05-4.22,4.78-5.75,8.96-6.53,1.39-.26,3.67-.6,6.86-1.02,0,0,.51-.14,1.51-.41.7-.19,1.24-.54,1.63-1.04.35-.45.51-1.01.47-1.67-.14-2.68-3.67-3.17-5.98-3.01-2.8.2-4.55,1.41-4.99,4.08-.02.14-.15.24-.3.24h-7.36c-.07,0-.12-.05-.12-.11.05-4.08,1.78-6.96,5.19-8.64,1.08-.53,2.38-.93,3.92-1.2,1.37-.24,2.75-.36,4.14-.37,4.65-.04,9.96.59,12.49,4.83.99,1.66,1.49,3.62,1.51,5.88.03,6.16.03,12.6,0,19.33,0,.09-.08.17-.19.17h-7.32c-.18,0-.34-.12-.37-.3l-.39-2.09ZM400.93,108c-1.26.59-2.34.97-3.23,1.13-2.28.41-3.94.78-4.97,1.11-1.74.56-3.08,1.4-3.36,3.14-.56,3.49,2.34,4.49,5.45,3.94,3.59-.65,6.06-3.1,6.12-6.52.02-.9.04-1.82.06-2.76,0-.05-.02-.06-.06-.04"/>
    <path class="cls-2" d="M292.98,104.8c-.21,0-.39-.16-.39-.36v-.26c0-3.32,2.83-6.01,6.31-6.01s6.31,2.69,6.31,6.01v.26c0,.2-.18.36-.39.36h-11.85Z"/>
    <path class="cls-5" d="M362.85,98.76c4.57-.06,6.49,2.82,7.04,6.67.55,3.89-.05,8.59-4.24,10.4-.77.33-1.62.5-2.56.52-.94,0-1.79-.14-2.57-.45-4.24-1.72-4.97-6.4-4.52-10.3.45-3.86,2.28-6.78,6.86-6.84"/>
    <path class="cls-4" d="M105.47,123.8c10.6-1.88,21.36-2.09,32.27-.66.12.02.2.11.2.22v16.13c0,.09-.08.16-.18.15-9.6-.84-19.08-.25-28.42,1.79-32.22,7.04-57.42,29.95-65.79,59.95-.03.12-.17.18-.28.14-5.77-1.77-11.04-4.4-15.81-7.88-.13-.09-.19-.25-.15-.39,3.78-14.61,10.95-27.6,21.51-38.96,14.67-15.79,34.69-26.61,56.65-30.5"/>
    <path class="cls-4" d="M254.2,127.99h.48c.12,0,.22.1.22.21v1.08c0,.12-.11.21-.23.21h-.48c-.12,0-.22-.1-.22-.21v-1.08c0-.12.11-.21.23-.21"/>
    <path class="cls-4" d="M285.15,135.23c-.04.11.05.23.17.23h4.22c.18,0,.28.08.28.25v.25c.01.18-.08.28-.28.28h-5.23c-.12,0-.22-.09-.22-.21.1-2.22,1.93-3.09,3.98-4.3.33-.2.57-.52.71-.96.38-1.19-.32-1.9-1.58-1.98-1.31-.09-2.01.49-2.1,1.72-.02.25-.16.37-.43.36-.02,0-.06,0-.14,0-.21,0-.31-.11-.3-.3.1-1.45.8-2.27,2.09-2.47,1.46-.24,3.17.15,3.43,1.64.33,1.93-1.27,2.75-2.88,3.64-.85.46-1.42,1.08-1.72,1.86"/>
    <path class="cls-4" d="M290.33,132.19c.01-1.76.41-4.21,2.88-4.2,2.47.01,2.84,2.46,2.83,4.23,0,1.76-.4,4.21-2.87,4.2-2.47,0-2.84-2.46-2.83-4.23M293.21,135.81c1.09,0,1.97-1.61,1.97-3.59s-.88-3.59-1.97-3.59-1.97,1.61-1.97,3.59.88,3.59,1.97,3.59"/>
    <path class="cls-4" d="M297.39,135.23c-.05.11.04.23.17.23h4.22c.18,0,.28.08.28.26v.25c.01.18-.08.28-.28.28h-5.24c-.12,0-.22-.1-.22-.21.1-2.23,1.94-3.09,3.98-4.3.33-.2.57-.52.71-.96.38-1.19-.32-1.9-1.58-1.98-1.31-.08-2,.49-2.1,1.73-.02.25-.16.37-.43.36-.01,0-.06,0-.14,0-.21,0-.31-.11-.3-.3.1-1.45.8-2.28,2.09-2.47,1.46-.23,3.17.15,3.43,1.65.32,1.93-1.28,2.75-2.88,3.64-.85.46-1.42,1.08-1.72,1.86"/>
    <path class="cls-4" d="M319.05,135.23c-.05.11.04.23.17.23h4.22c.18,0,.28.09.28.26v.25c.01.18-.08.28-.28.28h-5.24c-.12,0-.22-.1-.22-.21.1-2.22,1.94-3.08,3.98-4.3.33-.2.57-.52.71-.96.38-1.19-.32-1.9-1.58-1.98-1.31-.09-2,.49-2.1,1.72-.02.25-.16.37-.43.36-.01,0-.06,0-.14,0-.21,0-.31-.11-.3-.31.11-1.45.8-2.27,2.09-2.47,1.46-.23,3.17.15,3.43,1.65.32,1.93-1.28,2.75-2.88,3.63-.85.46-1.42,1.08-1.72,1.86"/>
    <path class="cls-4" d="M324.01,132.2c.01-1.76.4-4.21,2.87-4.2,2.47.01,2.84,2.47,2.83,4.23-.01,1.76-.4,4.21-2.87,4.2-2.47,0-2.84-2.46-2.83-4.22M326.89,135.81c1.09,0,1.97-1.61,1.96-3.59s-.89-3.59-1.98-3.59c-1.09,0-1.97,1.61-1.96,3.6,0,1.98.89,3.59,1.98,3.59"/>
    <path class="cls-4" d="M331.07,135.23c-.05.11.04.23.17.23h4.22c.18,0,.28.08.28.25v.25c.02.18-.08.27-.27.27h-5.24c-.12,0-.22-.09-.22-.2.1-2.22,1.93-3.09,3.98-4.31.33-.2.57-.52.71-.96.37-1.19-.32-1.9-1.58-1.98-1.31-.08-2.01.49-2.1,1.72-.02.25-.16.37-.43.36-.01,0-.06,0-.14,0-.21,0-.31-.11-.3-.3.11-1.45.8-2.28,2.09-2.48,1.46-.24,3.17.15,3.43,1.64.33,1.93-1.27,2.75-2.88,3.64-.84.47-1.42,1.09-1.72,1.86"/>
    <path class="cls-4" d="M196.61,132.24c-.74,0-1.46,0-2.15.03-.13,0-.2.07-.2.19v3.51c0,.16-.13.29-.31.29h-.33c-.22,0-.34-.1-.34-.31v-7.42c-.01-.18.15-.32.34-.32h.26c.19.01.35.16.35.35v2.71c0,.1.09.19.2.2.15,0,.87.01,2.16,0,1.28,0,2.01,0,2.16-.02.11,0,.2-.09.2-.2v-2.71c0-.18.15-.33.35-.34h.26c.19-.01.35.13.35.31v7.42c.01.21-.1.32-.32.32h-.33c-.17,0-.31-.13-.31-.29v-3.51c0-.12-.07-.18-.2-.19-.69-.01-1.41-.02-2.15-.02"/>
    <path class="cls-4" d="M209.14,128.2c.12,0,.26.03.42.07.12.04.2.11.24.22l3.11,7.43c.09.2.01.3-.22.31h-.32c-.22.02-.41-.11-.49-.3l-.64-1.53c-.05-.11-.15-.18-.27-.18-.2,0-.81,0-1.84,0-1.03,0-1.65,0-1.84,0-.12,0-.23.07-.27.18l-.65,1.52c-.08.19-.28.31-.49.3h-.32c-.24-.02-.31-.12-.22-.32l3.15-7.42c.05-.11.13-.18.24-.21.16-.05.3-.07.42-.07M207.42,133.3c-.03.07.02.15.11.15h3.16c.08,0,.14-.07.11-.14l-1.57-3.8c-.03-.09-.18-.09-.21,0l-1.59,3.79Z"/>
    <path class="cls-4" d="M340.55,129.24c.14-.17.1-.25-.13-.25h-3.99c-.17,0-.3-.13-.3-.28v-.25c0-.13.12-.25.26-.25h5.08c.37,0,.57.4.33.66-1.89,2.07-2.98,4.42-3.27,7.05-.02.18-.19.32-.39.32h-.2c-.25,0-.37-.12-.33-.35.3-2.47,1.28-4.68,2.93-6.66"/>
    <path class="cls-4" d="M307,133.41c0,.16.15.28.32.24.4-.08.61-.02.63.18.04.33-.18.48-.64.45-.22-.02-.33.08-.33.28v1.45c0,.16-.08.24-.25.24h-.42c-.18,0-.27-.08-.28-.26v-1.51c0-.1-.09-.19-.21-.19h-3.31c-.39,0-.62-.4-.41-.7.65-.91,1.8-2.55,3.46-4.93.39-.56.61-.5,1.2-.45.14,0,.22.08.22.22v4.98ZM306.05,129.74c0-.1-.15-.15-.21-.06l-2.61,3.75c-.05.07,0,.17.1.17h2.61c.06,0,.12-.05.12-.11v-3.75Z"/>
    <path class="cls-4" d="M233.69,130.84c-.14,0-.21.07-.21.2-.05,1.38-.04,2.45.02,3.2.08.92.57,1.39,1.48,1.41,1.86.03,1.61-1.81,1.62-3.13,0-.2.11-.3.32-.3h.17c.21,0,.33.1.36.3.13,1.15.17,2.83-1.03,3.55-1.37.82-3.41.29-3.8-1.3-.05-.18-.08-1.08-.11-2.69-.02-1.08-.01-2.14.01-3.19,0-.19.11-.28.31-.28h.35c.14,0,.26.1.26.24v1.16c0,.14.07.2.22.2h3.51c.2,0,.31.09.31.28v.14c0,.11-.1.2-.22.2h-3.58Z"/>
    <path class="cls-4" d="M269.95,130.83c-.14,0-.21.07-.21.2-.05,1.38-.04,2.45.02,3.21.08.93.57,1.39,1.48,1.41,1.86.03,1.61-1.81,1.62-3.13,0-.2.1-.3.32-.3h.17c.21,0,.33.1.36.3.13,1.15.16,2.84-1.03,3.56-1.37.82-3.41.28-3.8-1.3-.05-.18-.08-1.08-.1-2.7-.01-1.08-.01-2.14.02-3.19,0-.19.1-.28.3-.28h.35c.14,0,.26.11.26.24v1.16c0,.14.07.21.22.21h3.52c.2,0,.3.09.3.28v.14c0,.11-.1.2-.22.2h-3.58Z"/>
    <path class="cls-4" d="M227,131.08c0,.09.13.12.18.05.59-.84,1.41-1.22,2.46-1.15,1.45.11,2.04.99,2.04,2.29,0,1.7,0,2.95,0,3.73,0,.2-.11.29-.32.29h-.32c-.24,0-.36-.11-.35-.33.02-1.28.01-2.51-.02-3.71-.04-1.2-.7-1.69-2-1.46-.96.17-1.47.81-1.55,1.91-.07.95-.08,2.05-.05,3.28,0,.22-.11.32-.34.32h-.31c-.22,0-.34-.1-.34-.31v-5.56c0-.19.1-.28.3-.28h.22c.25,0,.38.12.38.35v.57Z"/>
    <path class="cls-4" d="M242.83,135.56c-.01-.18-.08-.21-.21-.07-.79.79-1.78,1.09-2.96.89-.97-.16-1.48-.68-1.52-1.56-.06-1.19.58-1.86,1.92-2.01,1.14-.13,1.97-.27,2.51-.42.1-.03.17-.11.18-.21.02-.73-.25-1.17-.82-1.33-1.52-.41-2.43-.05-2.74,1.08-.05.16-.16.24-.34.23l-.21-.02c-.2-.01-.29-.11-.27-.3.12-1.01.73-1.59,1.83-1.75,1.99-.3,3.43.16,3.51,2.23.03.85.03,2.1,0,3.75,0,.13-.08.19-.21.18l-.36-.02c-.15,0-.27-.12-.27-.26v-.4ZM242.71,133.12c-.7.08-1.5.19-2.41.32-1.01.15-1.41.68-1.2,1.6.07.31.29.52.65.61,1.14.29,2.68-.1,2.95-1.3.09-.39.11-.79.06-1.19,0-.03-.02-.05-.05-.04"/>
    <path class="cls-4" d="M245.43,131.06c0,.22.06.23.18.05.57-.9,1.36-1.25,2.37-1.03.49.1.86.44,1.12,1.01.05.11.12.12.19.01.54-.8,1.29-1.15,2.26-1.07,1.42.13,1.74,1.08,1.78,2.32.04,1.15.03,2.38-.02,3.68,0,.15-.09.23-.25.23h-.35c-.18,0-.27-.08-.27-.25l-.05-4.03c0-.85-.51-1.24-1.5-1.18,0,0-.05,0-.15.02-.93.14-1.39.65-1.39,1.53v3.63c0,.19-.09.28-.29.28h-.33c-.17,0-.3-.12-.3-.28l-.05-4.09c-.01-.77-.47-1.12-1.37-1.07-.01,0-.03,0-.05,0-.88.08-1.34.55-1.37,1.38l-.13,3.78c0,.18-.11.26-.3.26h-.32c-.19,0-.29-.09-.29-.26v-5.5c0-.19.1-.29.3-.29h.25c.23,0,.34.11.34.32v.55Z"/>
    <path class="cls-4" d="M256.64,133.65c.09,1.6,1.39,2.54,3.05,1.85.33-.14.55-.5.75-.74.14-.17.28-.26.41-.27.13-.01.26,0,.38,0,.15.02.2.1.15.23-.87,2.36-4.82,2.31-5.49-.2-.54-2.03,0-4.42,2.65-4.51.95-.03,1.7.25,2.23.82.47.5.73,1.27.78,2.32,0,.15-.12.28-.28.28h-4.41c-.15,0-.23.07-.22.21M256.76,132.82l3.75.04s.09-.03.09-.08v-.14c.02-1.05-.84-1.91-1.9-1.93h-.07c-1.06-.01-1.94.83-1.95,1.88v.14s.04.08.08.08"/>
    <path class="cls-4" d="M263.24,131.18c0,.22.07.23.19.05.66-1.04,1.64-1.43,2.91-1.17,1.06.22,1.6.9,1.61,2.06.01,1.24,0,2.52-.01,3.86,0,.18-.1.27-.28.27h-.34c-.17,0-.31-.13-.31-.29.01-1.9,0-3.15-.02-3.75-.03-.82-.39-1.32-1.31-1.41-2.15-.19-2.41,1.4-2.4,3.05,0,.8,0,1.51,0,2.13,0,.17-.09.26-.28.26h-.33c-.2,0-.31-.09-.31-.28l-.02-5.48c0-.19.1-.3.31-.3h.13c.28-.02.43.11.44.37l.02.63Z"/>
    <path class="cls-4" d="M277.54,136.48c-1.73-.02-3.11-1.5-3.08-3.3.02-1.8,1.44-3.25,3.17-3.23,1.73.02,3.11,1.5,3.08,3.3s-1.44,3.24-3.17,3.22M277.61,135.73c1.2,0,2.17-1.13,2.15-2.51-.01-1.38-.99-2.49-2.19-2.48-1.2,0-2.16,1.13-2.15,2.51.01,1.38.99,2.49,2.19,2.48"/>
    <path class="cls-4" d="M217.86,136.81v-1.1c0-.29-.11-.33-.33-.13-.7.65-1.63.82-2.79.5-.93-.25-1.43-.89-1.49-1.93-.05-.8-.06-2.04-.03-3.72,0-.15.08-.23.25-.23h.45c.16,0,.24.07.24.23,0,1.34-.01,2.37-.01,3.11,0,.61.1,1.07.32,1.39.27.41.8.59,1.59.57,1.14-.03,1.74-.55,1.8-1.56.04-.67.05-1.82.03-3.46,0-.15.13-.28.29-.29h.31c.21-.02.32.08.32.28.02,3.41.02,5.49-.02,6.25-.02.46-.22.93-.6,1.4-.79.98-2.43,1.13-3.54.69-.94-.37-1.42-1.08-1.46-2.12,0-.15.07-.23.24-.24h.15c.23,0,.44.15.48.36.09.46.22.76.39.89.93.74,1.89.77,2.88.1.33-.23.53-.59.53-.98"/>
    <path class="cls-4" d="M224.22,135.33c0-.09-.13-.12-.18-.05-.58.82-1.38,1.19-2.41,1.12-1.42-.11-1.99-.97-1.99-2.24,0-1.67,0-2.88.01-3.65,0-.19.1-.29.31-.29h.31c.23,0,.35.11.34.33-.02,1.25-.02,2.46.01,3.62.03,1.18.68,1.66,1.95,1.44.93-.16,1.44-.79,1.52-1.87.07-.93.09-2,.06-3.21,0-.21.1-.32.33-.32h.3c.22,0,.33.1.33.31v5.43c-.01.18-.11.27-.31.27h-.22c-.25,0-.37-.11-.37-.34v-.56Z"/>
    <path class="cls-4" d="M254.26,130.21h.38c.16,0,.28.12.28.27v5.5c0,.15-.13.27-.28.27h-.38c-.16,0-.28-.12-.28-.27v-5.5c0-.15.13-.27.28-.27"/>
    <path class="cls-4" d="M33.11,147.92c-.02.06-.08.1-.15.1-.06,0-.1,0-.12-.02-1.05-1.03-7-6.54-17.83-16.52-.14-.13-.15-.34-.01-.34,4.6-.06,10.24-.29,16.91-.68.22-.01.36.08.42.27,1.91,5.36,2.49,11.75.78,17.18"/>
    <path class="cls-4" d="M41.01,155.3c-.06.06-.15.06-.21,0l-5.99-5.57c-.09-.08-.11-.18-.06-.29.94-2.29,1.43-4.74,1.49-7.35.07-3.86-.5-7.66-1.71-11.39-.05-.13.06-.26.2-.26,3.28-.03,6.69.2,10.21.69.19.03.35.15.41.32,1.75,5.04,2.64,10.31,2.68,15.81,0,.15-.06.29-.16.41l-6.85,7.63Z"/>
    <path class="cls-4" d="M58.6,138.15c-3,2.18-5.78,4.52-8.34,7.01-.06.06-.16.02-.16-.06-.22-4.54-1.01-8.98-2.39-13.33-.05-.13,0-.19.15-.16,3.05.54,6,1.31,8.86,2.31.22.08.4.24.48.44l1.51,3.38c.07.15.02.32-.12.42"/>
    <path class="cls-4" d="M311.8,132.12h2.51c.17,0,.31.14.31.3v.13c0,.16-.14.29-.31.29h-2.51c-.17,0-.31-.14-.31-.3v-.13c0-.16.14-.29.31-.29"/>
    <path class="cls-4" d="M31.34,149.62c-5.8,1.65-12.64,1.17-18.39-.55-.21-.06-.3-.19-.29-.39.36-6.21.54-11.46.55-15.73,0-.13.23-.12.37,0,10.78,9.97,16.73,15.44,17.85,16.41.02.02.02.05.02.11,0,.06-.04.12-.11.14"/>
    <path class="cls-4" d="M201.09,134.93h.42c.18,0,.32.13.32.3v.71c0,.17-.14.3-.32.3h-.42c-.18,0-.32-.13-.32-.3v-.71c0-.17.14-.3.32-.3"/>
    <path class="cls-4" d="M60.29,135.32l1.18.52c.1.05.12.11.03.18l-.65.61c-.1.09-.27.08-.34-.04-.23-.36-.39-.72-.47-1.09-.05-.22.03-.28.25-.18"/>
    <path class="cls-4" d="M93.21,174.07c-1.92,1.27-3.74,2.59-5.45,3.96-8.78,7.06-15.41,15.6-19.89,25.62-.05.11-.17.19-.3.19-.1,0-2.71,0-7.83,0-2.09,0-3.84-.07-5.24-.19-1.84-.16-3.57-.38-5.21-.66-.26-.04-.35-.19-.28-.43,4.97-16.97,14.82-30.85,29.54-41.65,1.84-1.36,3.72-2.61,5.62-3.76,16.16-9.77,34-13.87,53.52-12.31.16,0,.28.13.28.28,0,7.11,0,10.73,0,10.85.01,1.84-.1,3.64-.34,5.39-.02.11-.08.16-.2.16-16.35-.26-31.09,3.92-44.21,12.54"/>
    <path class="cls-4" d="M39.57,156.96l-4.89,6.27c-.09.12-.22.18-.37.19-6,.36-11.92-.1-17.74-1.38-1.1-.24-2.04-.49-2.81-.76-.12-.04-.2-.13-.22-.25-.55-3.1-.84-6.31-.87-9.64,0-.09.09-.16.19-.13,5.87,1.42,11.94,1.87,17.7.6.84-.18,1.63-.44,2.39-.77.15-.07.32-.04.44.07l6.18,5.76s.01.03,0,.04"/>
    <path class="cls-4" d="M386.11,170.26c-.23.21-.54.48-.77.61-2.03,1.06-4.15,1.4-6.37,1.01-4.99-.88-6.06-5.6-5.32-9.63,1.12-6.09,6.41-9.96,13.13-9.09,3.37.43,5.63,2.49,5.54,5.79,0,.11-.07.17-.19.17h-4.05c-.13,0-.2-.06-.22-.17-.12-.71-.3-1.18-.56-1.41-.9-.81-2.01-1.17-3.34-1.05-3.71.32-5.42,3.41-5.9,6.61-.4,2.75.76,5.72,4.33,5.4,2.12-.19,3.65-1.23,4.56-3.13.07-.15-.05-.33-.23-.33h-3.42c-.12,0-.21-.1-.19-.21l.55-2.96c.02-.09.11-.16.21-.16h7.64c.16,0,.28.14.26.29l-1.74,9.26c-.02.12-.09.18-.22.18h-3.26c-.16,0-.23-.07-.23-.22v-.85c0-.19-.07-.22-.22-.09"/>
    <path class="cls-4" d="M221.59,156.49l.55-2.95c.01-.08.08-.13.17-.13h3.84c.11,0,.18.09.17.18l-.55,2.95c-.01.07-.08.13-.17.13h-3.84c-.11,0-.18-.09-.17-.18"/>
    <path class="cls-4" d="M265.22,159.47c.08.1.13.09.15-.03l1.1-5.85c.02-.11.09-.17.22-.17h3.79c.07,0,.12.06.11.12l-3.33,17.7c-.02.11-.12.18-.23.18h-3.62c-.14,0-.2-.07-.18-.2l.15-.83c.06-.34-.02-.38-.26-.11-.82.91-1.94,1.41-3.37,1.52-3.09.22-5.01-1.74-5.24-4.51-.35-4.18,2.05-9.34,7.16-9.46,1.56-.04,2.74.5,3.56,1.63M260.34,168.63c1.48.46,3.28-.86,4.01-2.93.73-2.07.12-4.12-1.36-4.57-1.48-.46-3.28.86-4.01,2.93-.73,2.07-.12,4.12,1.36,4.57"/>
    <path class="cls-4" d="M161.39,157.06h-5.17c-.17,0-.23-.07-.2-.22l.58-3.13c.01-.06.06-.09.13-.09h15.45c.08,0,.14.07.13.14l-.57,3.08c-.03.16-.13.24-.31.24h-5.26c-.07,0-.14.05-.15.11l-2.65,14.11c-.02.08-.09.15-.19.15h-4.13c-.1,0-.17-.08-.15-.17l2.64-14.04c.02-.08-.06-.16-.15-.16"/>
    <path class="cls-4" d="M427.15,158c-.02.14.03.2.18.2h7.12c.11,0,.2.1.18.21l-.44,2.34c-.02.13-.14.22-.28.22h-7.15c-.1,0-.2.07-.21.16-.5,2.57-.84,4.47-1.04,5.71-.14.85.25,1.47,1.23,1.57,1.79.18,2.32-1.07,2.59-2.52.18-.97.36-1.96.55-2.98.02-.13.1-.19.25-.19h3.46c.14,0,.2.07.18.19-.39,2.4-.69,3.93-.9,4.57-.76,2.25-2.35,3.64-4.75,4.17-3.55.78-7.47-.6-6.73-4.67.84-4.6,1.6-8.68,2.3-12.26.01-.07.07-.11.14-.11h3.78c.1,0,.18.08.16.18l-.6,3.21Z"/>
    <path class="cls-4" d="M174.9,159.04c1.25-.94,2.69-1.34,4.3-1.21.09,0,.12.05.11.13l-.69,3.68c-.02.1-.12.16-.22.15-.68-.09-1.38-.07-2.1.07-1.65.33-2.09,1.51-2.39,3.06-.44,2.29-.84,4.4-1.19,6.33-.02.12-.1.18-.23.18h-3.85c-.08,0-.14-.07-.13-.14l2.44-12.98c.01-.07.07-.11.14-.11h3.52c.15,0,.26.12.24.26l-.09.49c-.03.15.02.18.15.08"/>
    <path class="cls-4" d="M185.77,170.59c0-.06-.08-.09-.13-.06-1.71,1.19-3.7,1.56-5.97,1.12-1.7-.33-2.5-1.48-2.35-3.11.39-4.47,4.74-4.84,8.54-5.42.25-.04.52-.18.8-.42.22-.18.34-.42.38-.71.08-.62-.29-.99-1.13-1.12-1.65-.26-2.73.22-3.24,1.44-.04.1-.12.15-.23.15h-3.37c-.09,0-.16-.08-.14-.16.85-3.94,4.88-4.86,8.67-4.38,2.81.36,3.98,1.91,3.51,4.66-.47,2.77-1,5.69-1.59,8.76-.01.05-.06.08-.11.08h-3.42c-.15,0-.22-.07-.22-.2v-.63ZM186.32,165.38c-1.98.51-3.08.8-3.3.87-1.08.33-1.59.99-1.53,1.98.02.33.27.6.61.68,1.06.23,2.02.02,2.88-.61.93-.69,1.41-1.64,1.44-2.85,0-.05-.05-.08-.1-.07"/>
    <path class="cls-4" d="M199.86,166.82c-1.81-.49-3.07-.84-3.78-1.06-2.01-.61-3.39-1.96-2.9-4.19.75-3.48,5.34-4.04,8.43-3.66,2.55.31,3.94,1.6,3.65,4.1-.01.12-.08.18-.21.18h-3.56c-.14,0-.22-.06-.25-.19-.12-.54-.1-1.1-.75-1.33-1.01-.36-1.97-.3-2.88.21-.15.08-.27.21-.34.37-.29.69,0,1.16.87,1.41.2.05,1.46.4,3.79,1.03,1.7.46,2.85,1.65,2.69,3.4-.34,3.63-3.84,4.81-7.34,4.72-2.95-.08-6-1.02-5.71-4.41.01-.12.08-.18.21-.18h3.84c.13,0,.2.06.21.19.1,1.77,2.69,1.9,3.94,1.31.83-.39,1.22-1.59.08-1.9"/>
    <path class="cls-4" d="M230.55,165.82c-.93,0-1.23.4-.89,1.21l.19.46c.33.78,1.15,1.28,2.04,1.23.99-.05,1.73-.38,2.25-.99.08-.1.19-.15.32-.15h3.85c.1,0,.17.1.12.18-1.32,2.38-3.38,3.72-6.15,4.01-2.9.31-5.99-.53-6.65-3.52-.38-1.75-.21-3.54.51-5.36,1.36-3.43,4.04-5.11,8.05-5.05,5.02.08,5.76,4.15,4.86,7.83-.03.1-.09.15-.2.15h-8.3ZM230.49,163.5l4.89-.08c.06,0,.1-.05.1-.1v-.06c-.02-1.3-1.15-2.34-2.51-2.32h-.18c-1.36.02-2.44,1.1-2.42,2.4v.06c0,.05.05.09.11.09"/>
    <path class="cls-4" d="M245.31,159.45c-.02.09.1.14.17.07,1.62-1.79,5.2-2.35,7.13-.92,1.06.78,1.48,1.85,1.26,3.19-.38,2.33-.97,5.51-1.77,9.55-.01.07-.08.12-.15.12h-3.87c-.14,0-.2-.07-.18-.19.79-4.21,1.32-7.06,1.58-8.55.16-.94-.25-1.49-1.24-1.64-1.27-.2-2.23.13-2.86.98-.28.37-.53,1.17-.78,2.4-.44,2.24-.87,4.53-1.29,6.87-.01.07-.08.13-.17.13h-3.92c-.07,0-.13-.07-.12-.13l2.43-12.96c.02-.09.1-.16.21-.16h3.57c.13,0,.22.11.2.22l-.2,1.04Z"/>
    <path class="cls-4" d="M274.74,165.82c-.93,0-1.23.4-.89,1.21l.19.45c.32.78,1.15,1.28,2.04,1.24.98-.05,1.73-.38,2.25-.99.08-.1.19-.15.32-.15h3.85c.1,0,.17.1.12.19-1.33,2.38-3.37,3.72-6.15,4.01-2.9.3-5.99-.53-6.65-3.53-.38-1.75-.21-3.54.51-5.36,1.37-3.43,4.05-5.11,8.06-5.05,5.02.08,5.76,4.16,4.85,7.83-.02.1-.09.15-.2.15h-8.3ZM274.66,163.46h4.92c.05.01.1-.03.1-.07v-.07c0-1.32-1.11-2.39-2.49-2.39h-.11c-1.38,0-2.5,1.06-2.51,2.37v.07c0,.05.04.09.1.09"/>
    <path class="cls-4" d="M319.47,159.24c1.69,1.55,1.9,4.18,1.39,6.23-.39,1.55-1.14,2.85-2.26,3.92-1.12,1.06-2.5,1.79-4.15,2.18-2.19.52-5.01.38-6.71-1.18-1.69-1.55-1.9-4.18-1.39-6.23.39-1.55,1.15-2.86,2.26-3.92,1.12-1.06,2.5-1.79,4.15-2.18,2.19-.52,5.01-.37,6.71,1.18M310.68,164.23c-.41,1.63-.68,4.01,1.74,4.3,2.31.28,3.63-1.04,4.15-3.08.41-1.63.68-4.01-1.74-4.3-2.31-.28-3.63,1.04-4.15,3.08"/>
    <path class="cls-4" d="M327.27,158.96c-.03.15.02.18.15.08,1.25-.94,2.68-1.34,4.3-1.21.08,0,.12.05.1.13l-.69,3.68c-.02.1-.12.16-.22.15-.68-.1-1.38-.07-2.1.07-1.65.33-2.09,1.51-2.39,3.06-.44,2.28-.83,4.39-1.18,6.33-.02.12-.1.18-.23.18h-3.85c-.08,0-.14-.07-.13-.14l2.44-12.97c.01-.07.07-.11.14-.11h3.51c.15,0,.26.12.23.26l-.09.49Z"/>
    <path class="cls-4" d="M345.95,166.82c-1.81-.49-3.07-.84-3.78-1.06-2.01-.61-3.39-1.96-2.91-4.19.75-3.48,5.34-4.04,8.44-3.66,2.55.31,3.94,1.6,3.66,4.1-.01.12-.09.18-.21.18h-3.56c-.14,0-.22-.06-.25-.19-.12-.54-.1-1.1-.75-1.33-1.01-.36-1.97-.3-2.88.21-.15.08-.27.21-.34.37-.29.69,0,1.16.87,1.41.2.05,1.46.4,3.79,1.03,1.7.46,2.85,1.65,2.69,3.4-.33,3.63-3.84,4.81-7.34,4.72-2.95-.08-6-1.02-5.71-4.41.01-.12.08-.18.21-.18h3.84c.13,0,.2.06.21.19.1,1.77,2.69,1.9,3.94,1.31.83-.39,1.22-1.59.08-1.9"/>
    <path class="cls-4" d="M397.23,165.82c-.93,0-1.23.4-.89,1.21l.19.45c.32.78,1.14,1.27,2.04,1.23.98-.05,1.73-.38,2.25-.99.08-.1.19-.15.32-.15h3.85c.1,0,.17.1.12.18-1.32,2.38-3.38,3.72-6.15,4.02-2.9.31-5.99-.53-6.65-3.52-.39-1.75-.21-3.54.5-5.36,1.36-3.43,4.05-5.11,8.05-5.05,5.02.07,5.76,4.15,4.86,7.82-.02.1-.09.15-.2.15h-8.3ZM397.16,163.51l4.9-.1c.05,0,.09-.04.09-.09v-.08c-.03-1.3-1.16-2.33-2.52-2.3h-.15c-1.36.03-2.44,1.1-2.42,2.4v.08s.05.09.1.09"/>
    <path class="cls-4" d="M412.21,159.45c-.01.09.1.14.17.07,1.62-1.79,5.2-2.35,7.12-.92,1.06.78,1.47,1.84,1.26,3.19-.38,2.32-.97,5.5-1.77,9.54-.01.07-.08.12-.15.12h-3.86c-.14,0-.2-.06-.18-.19.79-4.21,1.31-7.05,1.57-8.54.16-.94-.25-1.48-1.24-1.64-1.27-.2-2.23.13-2.86.98-.28.37-.54,1.17-.78,2.4-.44,2.24-.86,4.52-1.29,6.86-.01.08-.08.13-.17.13h-3.91c-.08,0-.13-.06-.12-.13l2.42-12.94c.02-.09.11-.16.21-.16h3.56c.13,0,.22.1.2.22l-.2,1.04Z"/>
    <path class="cls-4" d="M439.76,165.82c-.93,0-1.23.41-.89,1.21l.19.45c.32.78,1.15,1.27,2.04,1.23.99-.05,1.74-.38,2.25-.99.08-.1.19-.15.32-.15h3.85c.1,0,.17.09.12.18-1.32,2.38-3.37,3.72-6.14,4.02-2.9.31-6-.53-6.66-3.52-.39-1.75-.22-3.54.51-5.36,1.36-3.43,4.04-5.11,8.05-5.05,5.02.07,5.76,4.15,4.87,7.82-.02.1-.09.15-.2.15h-8.31ZM439.67,163.46h4.91c.06,0,.1-.04.1-.09v-.07c0-1.31-1.1-2.37-2.47-2.38h-.15c-1.37,0-2.48,1.06-2.49,2.37v.07c0,.05.05.09.1.09"/>
    <path class="cls-4" d="M212.38,161.12c-.73.17-1.3.57-1.7,1.2-.97,1.5-2.1,6.79,1.48,6.18.98-.16,1.68-.71,2.08-1.64.04-.1.14-.16.25-.16h3.81c.12,0,.19.11.15.21-1.19,2.82-3.39,4.44-6.61,4.85-1.65.22-3.08-.05-4.29-.79-2.65-1.61-2.29-5.43-1.41-7.95,1.23-3.54,3.88-5.27,7.96-5.18,3.16.07,5.42,1.91,5.09,5,0,.05-.04.08-.09.08h-3.87c-.15,0-.27-.11-.27-.25-.01-1.3-1.33-1.83-2.58-1.55"/>
    <path class="cls-4" d="M294.81,170.2c-.12-.17-.19-.16-.24.04l-1.35,7.19c-.02.13-.1.19-.24.19h-3.63c-.17,0-.23-.07-.21-.23l3.58-19.01c.02-.11.09-.17.22-.17h3.58c.18,0,.26.08.22.25l-.15.82c-.05.28.03.32.23.1,1.97-2.13,6-2.1,7.68.26,1.54,2.16,1.11,5.47.05,7.86-1.16,2.59-3.61,4.48-6.76,4.31-1.3-.07-2.29-.6-2.96-1.61M296.99,168.53c1.48.45,3.26-.88,3.98-2.95.72-2.07.1-4.12-1.38-4.56-1.48-.45-3.26.88-3.98,2.95-.72,2.07-.1,4.12,1.38,4.56"/>
    <path class="cls-4" d="M222.82,171.43h-3.87c-.1,0-.18-.08-.16-.18l2.43-12.92c.01-.07.08-.12.16-.12h3.87c.1,0,.18.09.16.18l-2.43,12.91c-.01.07-.08.12-.16.12"/>
    <path class="cls-4" d="M360.04,170.16c.01-.09-.11-.14-.17-.07-1.61,1.78-5.17,2.34-7.08.93-1.05-.78-1.47-1.83-1.26-3.17.38-2.31.96-5.47,1.75-9.48.01-.07.08-.12.15-.12h3.84c.14,0,.2.06.18.19-.78,4.18-1.3,7.01-1.56,8.49-.16.93.25,1.47,1.24,1.63,1.26.19,2.21-.13,2.84-.98.27-.37.53-1.16.77-2.39.43-2.22.85-4.5,1.27-6.82.01-.07.08-.13.17-.13h3.89c.07,0,.13.06.12.12l-2.39,12.88c-.02.09-.11.16-.21.16h-3.54c-.13,0-.22-.1-.2-.21l.2-1.03Z"/>
    <path class="cls-4" d="M33.11,165.55c.08,0,.14.07.11.14l-4.86,9.56c-.03.06-.1.09-.18.08-3.79-.61-7.43-1.59-10.91-2.95-.3-.12-.51-.31-.62-.6-1.06-2.54-1.91-5.24-2.57-8.1-.02-.09.07-.17.16-.14,6.15,1.54,12.53,2.24,18.87,2.01"/>
    <path class="cls-4" d="M119.13,168.65c5.69-1.32,11.47-1.93,17.34-1.83.17,0,.23.08.19.23-3.42,12.4-10.71,22.07-21.86,29-6.76,4.2-14.65,6.74-22.76,7.54-1.57.15-3.88.23-6.91.23-4.24,0-7.92,0-11.03-.01-.08,0-.13-.07-.1-.14,5.06-10.26,12.49-18.65,22.27-25.17,6.99-4.66,14.6-7.94,22.85-9.85"/>
    <path class="cls-4" d="M27.23,177.21c.11.02.17.12.12.21l-2.65,6c-.03.07-.14.09-.19.03-2.43-2.41-4.48-5.11-6.14-8.1-.18-.33-.09-.43.29-.3,2.82.95,5.67,1.67,8.57,2.16"/>
    <path class="cls-1" d="M269.58,25.68c.13.02.23.05.32.11h-.79c.13-.06.29-.09.47-.11"/>
    <path class="cls-1" d="M322.8,25.79h-.45s0-.07,0-.1c.19-.04.33,0,.44.1"/>
  </g>
</svg>