<?xml version="1.0" encoding="UTF-8"?>
<svg id="Capa_2" data-name="Capa 2" xmlns="http://www.w3.org/2000/svg" xmlns:xlink="http://www.w3.org/1999/xlink" viewBox="0 0 638.8 425.87">
  <defs>
    <style>
      .cls-1 {
        fill: #edba36;
      }

      .cls-2 {
        fill: #729df8;
      }

      .cls-3 {
        fill: #32416f;
      }

      .cls-4 {
        fill: #fff;
      }

      .cls-5 {
        fill: none;
      }

      .cls-6 {
        fill: #8b2824;
      }

      .cls-7 {
        fill: #af3275;
      }

      .cls-8 {
        fill: #dbb33c;
      }

      .cls-9 {
        fill: #a4202a;
      }

      .cls-10 {
        fill: #322063;
      }

      .cls-11 {
        clip-path: url(#clippath);
      }

      .cls-12 {
        fill: #546ac5;
      }
    </style>
    <clipPath id="clippath">
      <rect class="cls-5" width="638.8" height="425.87"/>
    </clipPath>
  </defs>
  <g id="Capa_1-2" data-name="Capa 1">
    <g class="cls-11">
      <path class="cls-2" d="M479.83,212.95v106.71c-29.47,0-53.35-23.89-53.35-53.35s23.88-53.35,53.35-53.35"/>
      <path class="cls-1" d="M319.46.32h106.7c0,29.47-23.89,53.35-53.35,53.35S319.46,29.79,319.46.32"/>
      <path class="cls-7" d="M343.72.32h58.18c0,16.07-13.03,29.09-29.09,29.09s-29.09-13.02-29.09-29.09"/>
      <path class="cls-1" d="M319.45,266.54v-53.35h53.65c-.16,29.49-24.12,53.35-53.65,53.35"/>
      <path class="cls-2" d="M319.47,239.71v-26.52h26.81c-.15,14.68-12.09,26.52-26.81,26.52"/>
      <polygon class="cls-10" points="265.63 319.31 266.59 319.31 266.11 319.78 265.63 319.31"/>
      <path class="cls-2" d="M426.16,212.47v-105.76h106.35c-.32,58.46-47.81,105.76-106.35,105.76"/>
      <path class="cls-1" d="M426.19,159.29v-52.58h53.14c-.3,29.1-23.97,52.58-53.14,52.58"/>
      <polygon class="cls-3" points="319.94 266.69 213.23 266.69 266.59 213.34 319.94 266.69"/>
      <polygon class="cls-12" points="290.01 266.69 243.16 266.69 266.59 243.27 290.01 266.69"/>
      <rect class="cls-2" x="175.5" y="175.61" width="75.45" height="75.45" transform="translate(-88.4 213.26) rotate(-45)"/>
      <polygon class="cls-6" points="213.23 266.69 213.04 213.34 266.59 213.34 213.23 266.69"/>
      <polygon class="cls-6" points="213.24 159.99 213.04 213.34 159.88 213.34 213.24 159.99"/>
      <rect class="cls-3" x="267" y=".45" width="52.3" height="53.09"/>
      <polygon class="cls-3" points="267 .45 319.3 53.54 319.25 .6 267 .45"/>
      <polygon class="cls-7" points="213.23 159.87 159.87 213.22 106.52 159.87 106.67 159.72 213.04 159.72 213.04 159.68 213.23 159.87"/>
      <polygon class="cls-4" points="213.04 159.68 213.04 159.72 106.67 159.72 159.87 106.52 213.04 159.68"/>
      <rect class="cls-2" x="143.31" y="143.31" width="33.12" height="33.12" transform="translate(-66.22 159.87) rotate(-45)"/>
      <path class="cls-1" d="M266.59,373.43c29.46,0,53.35-23.89,53.35-53.35h-106.71c0,29.46,23.88,53.35,53.35,53.35"/>
      <rect class="cls-2" x="213.24" y="266.7" width="106.7" height="53.38"/>
      <path class="cls-6" d="M266.47,349.74c-16.46,0-29.81-13.35-29.81-29.81s13.35-29.81,29.81-29.81,29.81,13.35,29.81,29.81-13.35,29.81-29.81,29.81"/>
      <path class="cls-3" d="M426.48,320.07h0c-29.42,0-53.27-23.85-53.27-53.27v-53.62h53.27v106.88Z"/>
      <rect class="cls-6" x="-.18" y="320.1" width="213.22" height="51.91"/>
      <polygon class="cls-4" points="212.95 320.02 212.95 320.1 .09 320.1 106.56 213.63 212.95 320.02"/>
      <rect class="cls-2" x="69.91" y="283.49" width="73.22" height="73.22" transform="translate(-195.15 169.08) rotate(-45)"/>
      <path class="cls-3" d="M523.06,238.3c1.05,10.66-7.83,19.54-18.49,18.49-7.89-.78-14.27-7.16-15.05-15.05-1.05-10.66,7.83-19.54,18.49-18.49,7.89.78,14.27,7.16,15.05,15.05"/>
      <polygon class="cls-3" points="426.57 372.68 319.86 372.68 373.22 426.04 426.57 372.68"/>
      <path class="cls-2" d="M344.12,372.68h58.18c0,16.07-13.03,29.09-29.09,29.09s-29.09-13.02-29.09-29.09"/>
      <rect class="cls-7" x="319.91" y="320" width="106.6" height="52.68"/>
      <path class="cls-4" d="M363.2,346.75c0,9.31-7.55,16.85-16.85,16.85s-16.85-7.54-16.85-16.85,7.55-16.85,16.85-16.85,16.85,7.54,16.85,16.85"/>
      <path class="cls-4" d="M416.49,346.75c0,9.31-7.55,16.85-16.85,16.85s-16.85-7.54-16.85-16.85,7.55-16.85,16.85-16.85,16.85,7.54,16.85,16.85"/>
      <rect class="cls-6" x="213.04" y=".17" width="54.02" height="159.56"/>
      <path class="cls-8" d="M256.84,27c0,9.31-7.55,16.85-16.85,16.85s-16.85-7.55-16.85-16.85,7.55-16.85,16.85-16.85,16.85,7.54,16.85,16.85"/>
      <path class="cls-8" d="M256.84,79.95c0,9.31-7.55,16.85-16.85,16.85s-16.85-7.55-16.85-16.85,7.55-16.85,16.85-16.85,16.85,7.55,16.85,16.85"/>
      <path class="cls-8" d="M256.84,132.9c0,9.31-7.55,16.85-16.85,16.85s-16.85-7.55-16.85-16.85,7.55-16.85,16.85-16.85,16.85,7.55,16.85,16.85"/>
      <rect class="cls-2" x="-.18" y="372.01" width="159.56" height="54.02"/>
      <path class="cls-3" d="M26.65,382.45c9.31,0,16.85,7.55,16.85,16.85s-7.54,16.85-16.85,16.85-16.85-7.55-16.85-16.85,7.55-16.85,16.85-16.85"/>
      <path class="cls-3" d="M79.6,382.45c9.31,0,16.85,7.55,16.85,16.85s-7.54,16.85-16.85,16.85-16.85-7.55-16.85-16.85,7.54-16.85,16.85-16.85"/>
      <path class="cls-3" d="M132.55,382.45c9.31,0,16.85,7.55,16.85,16.85s-7.54,16.85-16.85,16.85-16.85-7.55-16.85-16.85,7.54-16.85,16.85-16.85"/>
      <rect class="cls-3" x="547.84" y="68.98" width="75.45" height="75.45" transform="translate(96.05 445.31) rotate(-45)"/>
      <polygon class="cls-6" points="585.56 160.06 585.74 106.71 638.92 106.71 585.56 160.06"/>
      <polygon class="cls-6" points="585.57 53.36 585.74 106.71 532.21 106.71 585.57 53.36"/>
      <polygon class="cls-1" points="51.01 372.06 -.18 320.1 -.12 371.92 51.01 372.06"/>
      <rect class="cls-6" x="159.38" y="371.88" width="53.64" height="54.16"/>
      <polygon class="cls-1" points="159.61 371.88 213.04 426.04 212.99 372.02 159.61 371.88"/>
      <rect class="cls-3" x="335.08" y="121.97" width="75.46" height="75.46" transform="translate(-3.73 310.39) rotate(-45)"/>
      <path class="cls-1" d="M319.88,106.62s1.25,25.52-13.29,39.92c-14.55,14.4-39.42,13.13-39.42,13.13,0,0-1.29-24.62,13.26-39.02,14.55-14.4,39.45-14.03,39.45-14.03"/>
      <path class="cls-6" d="M267.17,53.55s-1.25,25.52,13.29,39.92,39.42,13.13,39.42,13.13c0,0,1.29-24.62-13.26-39.02-14.55-14.4-39.45-14.03-39.45-14.03"/>
      <path class="cls-1" d="M319.94,106.62s-1.25,25.52,13.29,39.92c14.55,14.4,39.42,13.13,39.42,13.13,0,0,1.29-24.62-13.26-39.02-14.55-14.4-39.45-14.03-39.45-14.03"/>
      <path class="cls-6" d="M372.65,53.55s1.25,25.52-13.29,39.92c-14.55,14.4-39.42,13.13-39.42,13.13,0,0-1.29-24.62,13.26-39.02,14.55-14.4,39.45-14.03,39.45-14.03"/>
      <polygon class="cls-2" points="426.16 159.7 372.78 159.41 372.81 213.05 426.16 159.7"/>
      <polygon class="cls-4" points="212.9 159.77 319.78 266.65 319.78 159.77 212.9 159.77"/>
      <path class="cls-2" d="M310.28,186.66c0,9.31-7.55,16.85-16.85,16.85s-16.85-7.54-16.85-16.85,7.55-16.85,16.85-16.85,16.85,7.55,16.85,16.85"/>
      <path class="cls-2" d="M479.25,372.97s1.25,25.52-13.29,39.92c-14.55,14.4-39.42,13.13-39.42,13.13,0,0-1.29-24.62,13.26-39.02,14.55-14.4,39.45-14.03,39.45-14.03"/>
      <path class="cls-2" d="M426.54,319.9s-1.25,25.52,13.29,39.92c14.55,14.4,39.42,13.13,39.42,13.13,0,0,1.29-24.62-13.26-39.02-14.55-14.4-39.45-14.03-39.45-14.03"/>
      <path class="cls-2" d="M479.3,372.97s-1.25,25.52,13.29,39.92,39.42,13.13,39.42,13.13c0,0,1.29-24.62-13.26-39.02-14.55-14.4-39.45-14.03-39.45-14.03"/>
      <path class="cls-2" d="M532.02,319.89s1.25,25.52-13.29,39.92c-14.55,14.4-39.42,13.13-39.42,13.13,0,0-1.29-24.62,13.26-39.02,14.55-14.4,39.45-14.03,39.45-14.03"/>
      <rect class="cls-7" x="479.83" y="266.9" width="52.75" height="52.75"/>
      <polygon class="cls-3" points="479.83 266.9 532.58 266.9 532.58 319.66 479.83 266.9"/>
      <rect class="cls-1" x="585.57" y="372.98" width="53.06" height="53.06"/>
      <polygon class="cls-2" points="585.57 372.98 638.63 372.98 638.63 426.04 585.57 372.98"/>
      <rect class="cls-2" x="532.51" y="372.98" width="53.06" height="53.06"/>
      <polygon class="cls-3" points="532.51 426.04 532.51 372.98 585.57 372.98 532.51 426.04"/>
      <rect class="cls-3" x="585.57" y="213.5" width="53.06" height="159.56"/>
      <path class="cls-2" d="M628.87,238.61c1.06,10.66-7.83,19.54-18.49,18.49-7.89-.78-14.27-7.16-15.05-15.05-1.06-10.66,7.83-19.54,18.49-18.49,7.89.78,14.27,7.16,15.05,15.05"/>
      <path class="cls-2" d="M628.95,293.28c0,9.31-7.55,16.85-16.85,16.85s-16.85-7.54-16.85-16.85,7.55-16.85,16.85-16.85,16.85,7.54,16.85,16.85"/>
      <path class="cls-2" d="M628.95,346.23c0,9.31-7.55,16.85-16.85,16.85s-16.85-7.54-16.85-16.85,7.55-16.85,16.85-16.85,16.85,7.54,16.85,16.85"/>
      <path class="cls-7" d="M585.52,266.13h0c-29.42,0-53.27,23.85-53.27,53.27v53.61h53.27v-106.88Z"/>
      <polygon class="cls-1" points="532.21 106.71 585.56 160.06 585.57 213.5 532.51 213.03 532.21 106.71"/>
      <path class="cls-7" d="M585.55,213.8s1.25,25.52-13.29,39.92c-14.55,14.4-39.42,13.13-39.42,13.13,0,0-1.29-24.62,13.26-39.02,14.55-14.4,39.45-14.03,39.45-14.03"/>
      <path class="cls-7" d="M638.6,160.51s1.25,25.52-13.29,39.92c-14.55,14.4-39.42,13.13-39.42,13.13,0,0-1.28-24.62,13.26-39.02,14.55-14.4,39.45-14.03,39.45-14.03"/>
      <rect class="cls-8" x="-.18" y=".17" width="106.82" height="106.47"/>
      <path class="cls-7" d="M106.64,53.67v52.95h-53.24c.16-29.27,23.93-52.95,53.24-52.95"/>
      <path class="cls-2" d="M106.63,80.31v26.32h-26.6c.15-14.57,12-26.32,26.6-26.32"/>
      <path class="cls-3" d="M-.18.17H-.18C29.5.17,53.55,24.22,53.55,53.9v52.74H-.18V.17Z"/>
      <path class="cls-9" d="M96.88,27c0,9.31-7.55,16.85-16.85,16.85s-16.85-7.55-16.85-16.85,7.55-16.85,16.85-16.85,16.85,7.54,16.85,16.85"/>
      <polygon class="cls-2" points="213.36 53.52 160 106.87 106.65 53.52 106.8 53.38 213.17 53.38 213.17 53.33 213.36 53.52"/>
      <polygon class="cls-3" points="213.17 53.33 213.17 53.38 106.8 53.38 160.01 .17 213.17 53.33"/>
      <rect class="cls-1" x="143.44" y="36.96" width="33.12" height="33.12" transform="translate(9.02 128.82) rotate(-45)"/>
      <polygon class="cls-3" points="533.04 106.71 426.16 -.17 426.16 106.71 533.04 106.71"/>
      <path class="cls-12" d="M435.67,79.82c0-9.31,7.55-16.85,16.85-16.85s16.85,7.54,16.85,16.85-7.55,16.85-16.85,16.85-16.85-7.55-16.85-16.85"/>
      <polygon class="cls-7" points="586.98 .17 477.44 .17 532.22 54.93 586.98 .17"/>
      <polygon class="cls-2" points="532.22 54.93 532.51 106.71 638.98 .17 586.98 .17 532.22 54.93"/>
      <polygon class="cls-3" points="638.98 .17 585.57 53.36 638.93 106.71 638.98 .17"/>
      <path class="cls-2" d="M256.32,399.5c0,9.31-7.55,16.85-16.85,16.85s-16.85-7.54-16.85-16.85,7.55-16.85,16.85-16.85,16.85,7.55,16.85,16.85"/>
      <path class="cls-2" d="M309.61,399.5c0,9.31-7.55,16.85-16.85,16.85s-16.85-7.54-16.85-16.85,7.55-16.85,16.85-16.85,16.85,7.55,16.85,16.85"/>
      <polygon class="cls-1" points="319.86 372.68 319.94 426.04 373.22 426.04 319.86 372.68"/>
      <polygon class="cls-2" points="426.16 83.07 426.16 129.92 402.75 106.49 426.16 83.07"/>
      <polygon class="cls-3" points="372.86 106.61 372.86 53.55 425.92 53.55 372.86 106.61"/>
      <path class="cls-2" d="M106.91,159.99c0,29.46-23.89,53.35-53.35,53.35v-106.71c29.46,0,53.35,23.88,53.35,53.35"/>
      <rect class="cls-6" x="-.18" y="106.64" width="53.73" height="106.7"/>
      <path class="cls-3" d="M83.22,159.87c0-16.46-13.35-29.81-29.81-29.81s-29.81,13.35-29.81,29.81,13.35,29.81,29.81,29.81,29.81-13.35,29.81-29.81"/>
    </g>
  </g>
</svg>